<?xml version="1.0" encoding="utf-8" standalone="no"?>
<!DOCTYPE svg PUBLIC "-//W3C//DTD SVG 1.1//EN"
  "http://www.w3.org/Graphics/SVG/1.1/DTD/svg11.dtd">
<svg height="504pt" version="1.1" viewBox="0 0 504 504" width="504pt" xmlns="http://www.w3.org/2000/svg" xmlns:xlink="http://www.w3.org/1999/xlink">
 <metadata>
  <rdf:RDF xmlns:cc="http://creativecommons.org/ns#" xmlns:dc="http://purl.org/dc/elements/1.1/" xmlns:rdf="http://www.w3.org/1999/02/22-rdf-syntax-ns#">
   <cc:Work>
    <dc:type rdf:resource="http://purl.org/dc/dcmitype/StillImage"/>
    <dc:date>2021-11-16T10:35:55.987004</dc:date>
    <dc:format>image/svg+xml</dc:format>
    <dc:creator>
     <cc:Agent>
      <dc:title>Matplotlib v3.4.3, https://matplotlib.org/</dc:title>
     </cc:Agent>
    </dc:creator>
   </cc:Work>
  </rdf:RDF>
 </metadata>
 <defs>
  <style type="text/css">*{stroke-linecap:butt;stroke-linejoin:round;}</style>
 </defs>
 <g id="figure_1">
  <g id="patch_1">
   <path d="M 0 504 
L 504 504 
L 504 0 
L 0 0 
z
" style="fill:#ffffff;"/>
  </g>
  <g id="axes_1">
   <g id="patch_2">
    <path d="M 52.50125 460.908125 
L 483.65625 460.908125 
L 483.65625 14.599219 
L 52.50125 14.599219 
z
" style="fill:#ffffff;"/>
   </g>
   <g id="matplotlib.axis_1">
    <g id="xtick_1">
     <g id="line2d_1">
      <defs>
       <path d="M 0 0 
L 0 3.5 
" id="mf3aa292506" style="stroke:#000000;stroke-width:0.8;"/>
      </defs>
      <g>
       <use style="stroke:#000000;stroke-width:0.8;" x="52.50125" xlink:href="#mf3aa292506" y="460.908125"/>
      </g>
     </g>
     <g id="text_1">
      <!-- 650 -->
      <g transform="translate(42.9575 475.506563)scale(0.1 -0.1)">
       <defs>
        <path d="M 2113 2584 
Q 1688 2584 1439 2293 
Q 1191 2003 1191 1497 
Q 1191 994 1439 701 
Q 1688 409 2113 409 
Q 2538 409 2786 701 
Q 3034 994 3034 1497 
Q 3034 2003 2786 2293 
Q 2538 2584 2113 2584 
z
M 3366 4563 
L 3366 3988 
Q 3128 4100 2886 4159 
Q 2644 4219 2406 4219 
Q 1781 4219 1451 3797 
Q 1122 3375 1075 2522 
Q 1259 2794 1537 2939 
Q 1816 3084 2150 3084 
Q 2853 3084 3261 2657 
Q 3669 2231 3669 1497 
Q 3669 778 3244 343 
Q 2819 -91 2113 -91 
Q 1303 -91 875 529 
Q 447 1150 447 2328 
Q 447 3434 972 4092 
Q 1497 4750 2381 4750 
Q 2619 4750 2861 4703 
Q 3103 4656 3366 4563 
z
" id="DejaVuSans-36" transform="scale(0.015625)"/>
        <path d="M 691 4666 
L 3169 4666 
L 3169 4134 
L 1269 4134 
L 1269 2991 
Q 1406 3038 1543 3061 
Q 1681 3084 1819 3084 
Q 2600 3084 3056 2656 
Q 3513 2228 3513 1497 
Q 3513 744 3044 326 
Q 2575 -91 1722 -91 
Q 1428 -91 1123 -41 
Q 819 9 494 109 
L 494 744 
Q 775 591 1075 516 
Q 1375 441 1709 441 
Q 2250 441 2565 725 
Q 2881 1009 2881 1497 
Q 2881 1984 2565 2268 
Q 2250 2553 1709 2553 
Q 1456 2553 1204 2497 
Q 953 2441 691 2322 
L 691 4666 
z
" id="DejaVuSans-35" transform="scale(0.015625)"/>
        <path d="M 2034 4250 
Q 1547 4250 1301 3770 
Q 1056 3291 1056 2328 
Q 1056 1369 1301 889 
Q 1547 409 2034 409 
Q 2525 409 2770 889 
Q 3016 1369 3016 2328 
Q 3016 3291 2770 3770 
Q 2525 4250 2034 4250 
z
M 2034 4750 
Q 2819 4750 3233 4129 
Q 3647 3509 3647 2328 
Q 3647 1150 3233 529 
Q 2819 -91 2034 -91 
Q 1250 -91 836 529 
Q 422 1150 422 2328 
Q 422 3509 836 4129 
Q 1250 4750 2034 4750 
z
" id="DejaVuSans-30" transform="scale(0.015625)"/>
       </defs>
       <use xlink:href="#DejaVuSans-36"/>
       <use x="63.623047" xlink:href="#DejaVuSans-35"/>
       <use x="127.246094" xlink:href="#DejaVuSans-30"/>
      </g>
     </g>
    </g>
    <g id="xtick_2">
     <g id="line2d_2">
      <g>
       <use style="stroke:#000000;stroke-width:0.8;" x="106.395625" xlink:href="#mf3aa292506" y="460.908125"/>
      </g>
     </g>
     <g id="text_2">
      <!-- 675 -->
      <g transform="translate(96.851875 475.506563)scale(0.1 -0.1)">
       <defs>
        <path d="M 525 4666 
L 3525 4666 
L 3525 4397 
L 1831 0 
L 1172 0 
L 2766 4134 
L 525 4134 
L 525 4666 
z
" id="DejaVuSans-37" transform="scale(0.015625)"/>
       </defs>
       <use xlink:href="#DejaVuSans-36"/>
       <use x="63.623047" xlink:href="#DejaVuSans-37"/>
       <use x="127.246094" xlink:href="#DejaVuSans-35"/>
      </g>
     </g>
    </g>
    <g id="xtick_3">
     <g id="line2d_3">
      <g>
       <use style="stroke:#000000;stroke-width:0.8;" x="160.29" xlink:href="#mf3aa292506" y="460.908125"/>
      </g>
     </g>
     <g id="text_3">
      <!-- 700 -->
      <g transform="translate(150.74625 475.506563)scale(0.1 -0.1)">
       <use xlink:href="#DejaVuSans-37"/>
       <use x="63.623047" xlink:href="#DejaVuSans-30"/>
       <use x="127.246094" xlink:href="#DejaVuSans-30"/>
      </g>
     </g>
    </g>
    <g id="xtick_4">
     <g id="line2d_4">
      <g>
       <use style="stroke:#000000;stroke-width:0.8;" x="214.184375" xlink:href="#mf3aa292506" y="460.908125"/>
      </g>
     </g>
     <g id="text_4">
      <!-- 725 -->
      <g transform="translate(204.640625 475.506563)scale(0.1 -0.1)">
       <defs>
        <path d="M 1228 531 
L 3431 531 
L 3431 0 
L 469 0 
L 469 531 
Q 828 903 1448 1529 
Q 2069 2156 2228 2338 
Q 2531 2678 2651 2914 
Q 2772 3150 2772 3378 
Q 2772 3750 2511 3984 
Q 2250 4219 1831 4219 
Q 1534 4219 1204 4116 
Q 875 4013 500 3803 
L 500 4441 
Q 881 4594 1212 4672 
Q 1544 4750 1819 4750 
Q 2544 4750 2975 4387 
Q 3406 4025 3406 3419 
Q 3406 3131 3298 2873 
Q 3191 2616 2906 2266 
Q 2828 2175 2409 1742 
Q 1991 1309 1228 531 
z
" id="DejaVuSans-32" transform="scale(0.015625)"/>
       </defs>
       <use xlink:href="#DejaVuSans-37"/>
       <use x="63.623047" xlink:href="#DejaVuSans-32"/>
       <use x="127.246094" xlink:href="#DejaVuSans-35"/>
      </g>
     </g>
    </g>
    <g id="xtick_5">
     <g id="line2d_5">
      <g>
       <use style="stroke:#000000;stroke-width:0.8;" x="268.07875" xlink:href="#mf3aa292506" y="460.908125"/>
      </g>
     </g>
     <g id="text_5">
      <!-- 750 -->
      <g transform="translate(258.535 475.506563)scale(0.1 -0.1)">
       <use xlink:href="#DejaVuSans-37"/>
       <use x="63.623047" xlink:href="#DejaVuSans-35"/>
       <use x="127.246094" xlink:href="#DejaVuSans-30"/>
      </g>
     </g>
    </g>
    <g id="xtick_6">
     <g id="line2d_6">
      <g>
       <use style="stroke:#000000;stroke-width:0.8;" x="321.973125" xlink:href="#mf3aa292506" y="460.908125"/>
      </g>
     </g>
     <g id="text_6">
      <!-- 775 -->
      <g transform="translate(312.429375 475.506563)scale(0.1 -0.1)">
       <use xlink:href="#DejaVuSans-37"/>
       <use x="63.623047" xlink:href="#DejaVuSans-37"/>
       <use x="127.246094" xlink:href="#DejaVuSans-35"/>
      </g>
     </g>
    </g>
    <g id="xtick_7">
     <g id="line2d_7">
      <g>
       <use style="stroke:#000000;stroke-width:0.8;" x="375.8675" xlink:href="#mf3aa292506" y="460.908125"/>
      </g>
     </g>
     <g id="text_7">
      <!-- 800 -->
      <g transform="translate(366.32375 475.506563)scale(0.1 -0.1)">
       <defs>
        <path d="M 2034 2216 
Q 1584 2216 1326 1975 
Q 1069 1734 1069 1313 
Q 1069 891 1326 650 
Q 1584 409 2034 409 
Q 2484 409 2743 651 
Q 3003 894 3003 1313 
Q 3003 1734 2745 1975 
Q 2488 2216 2034 2216 
z
M 1403 2484 
Q 997 2584 770 2862 
Q 544 3141 544 3541 
Q 544 4100 942 4425 
Q 1341 4750 2034 4750 
Q 2731 4750 3128 4425 
Q 3525 4100 3525 3541 
Q 3525 3141 3298 2862 
Q 3072 2584 2669 2484 
Q 3125 2378 3379 2068 
Q 3634 1759 3634 1313 
Q 3634 634 3220 271 
Q 2806 -91 2034 -91 
Q 1263 -91 848 271 
Q 434 634 434 1313 
Q 434 1759 690 2068 
Q 947 2378 1403 2484 
z
M 1172 3481 
Q 1172 3119 1398 2916 
Q 1625 2713 2034 2713 
Q 2441 2713 2670 2916 
Q 2900 3119 2900 3481 
Q 2900 3844 2670 4047 
Q 2441 4250 2034 4250 
Q 1625 4250 1398 4047 
Q 1172 3844 1172 3481 
z
" id="DejaVuSans-38" transform="scale(0.015625)"/>
       </defs>
       <use xlink:href="#DejaVuSans-38"/>
       <use x="63.623047" xlink:href="#DejaVuSans-30"/>
       <use x="127.246094" xlink:href="#DejaVuSans-30"/>
      </g>
     </g>
    </g>
    <g id="xtick_8">
     <g id="line2d_8">
      <g>
       <use style="stroke:#000000;stroke-width:0.8;" x="429.761875" xlink:href="#mf3aa292506" y="460.908125"/>
      </g>
     </g>
     <g id="text_8">
      <!-- 825 -->
      <g transform="translate(420.218125 475.506563)scale(0.1 -0.1)">
       <use xlink:href="#DejaVuSans-38"/>
       <use x="63.623047" xlink:href="#DejaVuSans-32"/>
       <use x="127.246094" xlink:href="#DejaVuSans-35"/>
      </g>
     </g>
    </g>
    <g id="xtick_9">
     <g id="line2d_9">
      <g>
       <use style="stroke:#000000;stroke-width:0.8;" x="483.65625" xlink:href="#mf3aa292506" y="460.908125"/>
      </g>
     </g>
     <g id="text_9">
      <!-- 850 -->
      <g transform="translate(474.1125 475.506563)scale(0.1 -0.1)">
       <use xlink:href="#DejaVuSans-38"/>
       <use x="63.623047" xlink:href="#DejaVuSans-35"/>
       <use x="127.246094" xlink:href="#DejaVuSans-30"/>
      </g>
     </g>
    </g>
    <g id="text_10">
     <!-- Wavelength (nm) -->
     <g transform="translate(216.248125 490.704375)scale(0.12 -0.12)">
      <defs>
       <path d="M 213 4666 
L 850 4666 
L 1831 722 
L 2809 4666 
L 3519 4666 
L 4500 722 
L 5478 4666 
L 6119 4666 
L 4947 0 
L 4153 0 
L 3169 4050 
L 2175 0 
L 1381 0 
L 213 4666 
z
" id="DejaVuSans-57" transform="scale(0.015625)"/>
       <path d="M 2194 1759 
Q 1497 1759 1228 1600 
Q 959 1441 959 1056 
Q 959 750 1161 570 
Q 1363 391 1709 391 
Q 2188 391 2477 730 
Q 2766 1069 2766 1631 
L 2766 1759 
L 2194 1759 
z
M 3341 1997 
L 3341 0 
L 2766 0 
L 2766 531 
Q 2569 213 2275 61 
Q 1981 -91 1556 -91 
Q 1019 -91 701 211 
Q 384 513 384 1019 
Q 384 1609 779 1909 
Q 1175 2209 1959 2209 
L 2766 2209 
L 2766 2266 
Q 2766 2663 2505 2880 
Q 2244 3097 1772 3097 
Q 1472 3097 1187 3025 
Q 903 2953 641 2809 
L 641 3341 
Q 956 3463 1253 3523 
Q 1550 3584 1831 3584 
Q 2591 3584 2966 3190 
Q 3341 2797 3341 1997 
z
" id="DejaVuSans-61" transform="scale(0.015625)"/>
       <path d="M 191 3500 
L 800 3500 
L 1894 563 
L 2988 3500 
L 3597 3500 
L 2284 0 
L 1503 0 
L 191 3500 
z
" id="DejaVuSans-76" transform="scale(0.015625)"/>
       <path d="M 3597 1894 
L 3597 1613 
L 953 1613 
Q 991 1019 1311 708 
Q 1631 397 2203 397 
Q 2534 397 2845 478 
Q 3156 559 3463 722 
L 3463 178 
Q 3153 47 2828 -22 
Q 2503 -91 2169 -91 
Q 1331 -91 842 396 
Q 353 884 353 1716 
Q 353 2575 817 3079 
Q 1281 3584 2069 3584 
Q 2775 3584 3186 3129 
Q 3597 2675 3597 1894 
z
M 3022 2063 
Q 3016 2534 2758 2815 
Q 2500 3097 2075 3097 
Q 1594 3097 1305 2825 
Q 1016 2553 972 2059 
L 3022 2063 
z
" id="DejaVuSans-65" transform="scale(0.015625)"/>
       <path d="M 603 4863 
L 1178 4863 
L 1178 0 
L 603 0 
L 603 4863 
z
" id="DejaVuSans-6c" transform="scale(0.015625)"/>
       <path d="M 3513 2113 
L 3513 0 
L 2938 0 
L 2938 2094 
Q 2938 2591 2744 2837 
Q 2550 3084 2163 3084 
Q 1697 3084 1428 2787 
Q 1159 2491 1159 1978 
L 1159 0 
L 581 0 
L 581 3500 
L 1159 3500 
L 1159 2956 
Q 1366 3272 1645 3428 
Q 1925 3584 2291 3584 
Q 2894 3584 3203 3211 
Q 3513 2838 3513 2113 
z
" id="DejaVuSans-6e" transform="scale(0.015625)"/>
       <path d="M 2906 1791 
Q 2906 2416 2648 2759 
Q 2391 3103 1925 3103 
Q 1463 3103 1205 2759 
Q 947 2416 947 1791 
Q 947 1169 1205 825 
Q 1463 481 1925 481 
Q 2391 481 2648 825 
Q 2906 1169 2906 1791 
z
M 3481 434 
Q 3481 -459 3084 -895 
Q 2688 -1331 1869 -1331 
Q 1566 -1331 1297 -1286 
Q 1028 -1241 775 -1147 
L 775 -588 
Q 1028 -725 1275 -790 
Q 1522 -856 1778 -856 
Q 2344 -856 2625 -561 
Q 2906 -266 2906 331 
L 2906 616 
Q 2728 306 2450 153 
Q 2172 0 1784 0 
Q 1141 0 747 490 
Q 353 981 353 1791 
Q 353 2603 747 3093 
Q 1141 3584 1784 3584 
Q 2172 3584 2450 3431 
Q 2728 3278 2906 2969 
L 2906 3500 
L 3481 3500 
L 3481 434 
z
" id="DejaVuSans-67" transform="scale(0.015625)"/>
       <path d="M 1172 4494 
L 1172 3500 
L 2356 3500 
L 2356 3053 
L 1172 3053 
L 1172 1153 
Q 1172 725 1289 603 
Q 1406 481 1766 481 
L 2356 481 
L 2356 0 
L 1766 0 
Q 1100 0 847 248 
Q 594 497 594 1153 
L 594 3053 
L 172 3053 
L 172 3500 
L 594 3500 
L 594 4494 
L 1172 4494 
z
" id="DejaVuSans-74" transform="scale(0.015625)"/>
       <path d="M 3513 2113 
L 3513 0 
L 2938 0 
L 2938 2094 
Q 2938 2591 2744 2837 
Q 2550 3084 2163 3084 
Q 1697 3084 1428 2787 
Q 1159 2491 1159 1978 
L 1159 0 
L 581 0 
L 581 4863 
L 1159 4863 
L 1159 2956 
Q 1366 3272 1645 3428 
Q 1925 3584 2291 3584 
Q 2894 3584 3203 3211 
Q 3513 2838 3513 2113 
z
" id="DejaVuSans-68" transform="scale(0.015625)"/>
       <path id="DejaVuSans-20" transform="scale(0.015625)"/>
       <path d="M 1984 4856 
Q 1566 4138 1362 3434 
Q 1159 2731 1159 2009 
Q 1159 1288 1364 580 
Q 1569 -128 1984 -844 
L 1484 -844 
Q 1016 -109 783 600 
Q 550 1309 550 2009 
Q 550 2706 781 3412 
Q 1013 4119 1484 4856 
L 1984 4856 
z
" id="DejaVuSans-28" transform="scale(0.015625)"/>
       <path d="M 3328 2828 
Q 3544 3216 3844 3400 
Q 4144 3584 4550 3584 
Q 5097 3584 5394 3201 
Q 5691 2819 5691 2113 
L 5691 0 
L 5113 0 
L 5113 2094 
Q 5113 2597 4934 2840 
Q 4756 3084 4391 3084 
Q 3944 3084 3684 2787 
Q 3425 2491 3425 1978 
L 3425 0 
L 2847 0 
L 2847 2094 
Q 2847 2600 2669 2842 
Q 2491 3084 2119 3084 
Q 1678 3084 1418 2786 
Q 1159 2488 1159 1978 
L 1159 0 
L 581 0 
L 581 3500 
L 1159 3500 
L 1159 2956 
Q 1356 3278 1631 3431 
Q 1906 3584 2284 3584 
Q 2666 3584 2933 3390 
Q 3200 3197 3328 2828 
z
" id="DejaVuSans-6d" transform="scale(0.015625)"/>
       <path d="M 513 4856 
L 1013 4856 
Q 1481 4119 1714 3412 
Q 1947 2706 1947 2009 
Q 1947 1309 1714 600 
Q 1481 -109 1013 -844 
L 513 -844 
Q 928 -128 1133 580 
Q 1338 1288 1338 2009 
Q 1338 2731 1133 3434 
Q 928 4138 513 4856 
z
" id="DejaVuSans-29" transform="scale(0.015625)"/>
      </defs>
      <use xlink:href="#DejaVuSans-57"/>
      <use x="92.501953" xlink:href="#DejaVuSans-61"/>
      <use x="153.78125" xlink:href="#DejaVuSans-76"/>
      <use x="212.960938" xlink:href="#DejaVuSans-65"/>
      <use x="274.484375" xlink:href="#DejaVuSans-6c"/>
      <use x="302.267578" xlink:href="#DejaVuSans-65"/>
      <use x="363.791016" xlink:href="#DejaVuSans-6e"/>
      <use x="427.169922" xlink:href="#DejaVuSans-67"/>
      <use x="490.646484" xlink:href="#DejaVuSans-74"/>
      <use x="529.855469" xlink:href="#DejaVuSans-68"/>
      <use x="593.234375" xlink:href="#DejaVuSans-20"/>
      <use x="625.021484" xlink:href="#DejaVuSans-28"/>
      <use x="664.035156" xlink:href="#DejaVuSans-6e"/>
      <use x="727.414062" xlink:href="#DejaVuSans-6d"/>
      <use x="824.826172" xlink:href="#DejaVuSans-29"/>
     </g>
    </g>
   </g>
   <g id="matplotlib.axis_2">
    <g id="ytick_1">
     <g id="line2d_10">
      <defs>
       <path d="M 0 0 
L -3.5 0 
" id="m7f9ba3df84" style="stroke:#000000;stroke-width:0.8;"/>
      </defs>
      <g>
       <use style="stroke:#000000;stroke-width:0.8;" x="52.50125" xlink:href="#m7f9ba3df84" y="460.908125"/>
      </g>
     </g>
     <g id="text_11">
      <!-- 0 -->
      <g transform="translate(39.13875 464.707344)scale(0.1 -0.1)">
       <use xlink:href="#DejaVuSans-30"/>
      </g>
     </g>
    </g>
    <g id="ytick_2">
     <g id="line2d_11">
      <g>
       <use style="stroke:#000000;stroke-width:0.8;" x="52.50125" xlink:href="#m7f9ba3df84" y="397.14971"/>
      </g>
     </g>
     <g id="text_12">
      <!-- 100 -->
      <g transform="translate(26.41375 400.948929)scale(0.1 -0.1)">
       <defs>
        <path d="M 794 531 
L 1825 531 
L 1825 4091 
L 703 3866 
L 703 4441 
L 1819 4666 
L 2450 4666 
L 2450 531 
L 3481 531 
L 3481 0 
L 794 0 
L 794 531 
z
" id="DejaVuSans-31" transform="scale(0.015625)"/>
       </defs>
       <use xlink:href="#DejaVuSans-31"/>
       <use x="63.623047" xlink:href="#DejaVuSans-30"/>
       <use x="127.246094" xlink:href="#DejaVuSans-30"/>
      </g>
     </g>
    </g>
    <g id="ytick_3">
     <g id="line2d_12">
      <g>
       <use style="stroke:#000000;stroke-width:0.8;" x="52.50125" xlink:href="#m7f9ba3df84" y="333.391295"/>
      </g>
     </g>
     <g id="text_13">
      <!-- 200 -->
      <g transform="translate(26.41375 337.190513)scale(0.1 -0.1)">
       <use xlink:href="#DejaVuSans-32"/>
       <use x="63.623047" xlink:href="#DejaVuSans-30"/>
       <use x="127.246094" xlink:href="#DejaVuSans-30"/>
      </g>
     </g>
    </g>
    <g id="ytick_4">
     <g id="line2d_13">
      <g>
       <use style="stroke:#000000;stroke-width:0.8;" x="52.50125" xlink:href="#m7f9ba3df84" y="269.632879"/>
      </g>
     </g>
     <g id="text_14">
      <!-- 300 -->
      <g transform="translate(26.41375 273.432098)scale(0.1 -0.1)">
       <defs>
        <path d="M 2597 2516 
Q 3050 2419 3304 2112 
Q 3559 1806 3559 1356 
Q 3559 666 3084 287 
Q 2609 -91 1734 -91 
Q 1441 -91 1130 -33 
Q 819 25 488 141 
L 488 750 
Q 750 597 1062 519 
Q 1375 441 1716 441 
Q 2309 441 2620 675 
Q 2931 909 2931 1356 
Q 2931 1769 2642 2001 
Q 2353 2234 1838 2234 
L 1294 2234 
L 1294 2753 
L 1863 2753 
Q 2328 2753 2575 2939 
Q 2822 3125 2822 3475 
Q 2822 3834 2567 4026 
Q 2313 4219 1838 4219 
Q 1578 4219 1281 4162 
Q 984 4106 628 3988 
L 628 4550 
Q 988 4650 1302 4700 
Q 1616 4750 1894 4750 
Q 2613 4750 3031 4423 
Q 3450 4097 3450 3541 
Q 3450 3153 3228 2886 
Q 3006 2619 2597 2516 
z
" id="DejaVuSans-33" transform="scale(0.015625)"/>
       </defs>
       <use xlink:href="#DejaVuSans-33"/>
       <use x="63.623047" xlink:href="#DejaVuSans-30"/>
       <use x="127.246094" xlink:href="#DejaVuSans-30"/>
      </g>
     </g>
    </g>
    <g id="ytick_5">
     <g id="line2d_14">
      <g>
       <use style="stroke:#000000;stroke-width:0.8;" x="52.50125" xlink:href="#m7f9ba3df84" y="205.874464"/>
      </g>
     </g>
     <g id="text_15">
      <!-- 400 -->
      <g transform="translate(26.41375 209.673683)scale(0.1 -0.1)">
       <defs>
        <path d="M 2419 4116 
L 825 1625 
L 2419 1625 
L 2419 4116 
z
M 2253 4666 
L 3047 4666 
L 3047 1625 
L 3713 1625 
L 3713 1100 
L 3047 1100 
L 3047 0 
L 2419 0 
L 2419 1100 
L 313 1100 
L 313 1709 
L 2253 4666 
z
" id="DejaVuSans-34" transform="scale(0.015625)"/>
       </defs>
       <use xlink:href="#DejaVuSans-34"/>
       <use x="63.623047" xlink:href="#DejaVuSans-30"/>
       <use x="127.246094" xlink:href="#DejaVuSans-30"/>
      </g>
     </g>
    </g>
    <g id="ytick_6">
     <g id="line2d_15">
      <g>
       <use style="stroke:#000000;stroke-width:0.8;" x="52.50125" xlink:href="#m7f9ba3df84" y="142.116049"/>
      </g>
     </g>
     <g id="text_16">
      <!-- 500 -->
      <g transform="translate(26.41375 145.915268)scale(0.1 -0.1)">
       <use xlink:href="#DejaVuSans-35"/>
       <use x="63.623047" xlink:href="#DejaVuSans-30"/>
       <use x="127.246094" xlink:href="#DejaVuSans-30"/>
      </g>
     </g>
    </g>
    <g id="ytick_7">
     <g id="line2d_16">
      <g>
       <use style="stroke:#000000;stroke-width:0.8;" x="52.50125" xlink:href="#m7f9ba3df84" y="78.357634"/>
      </g>
     </g>
     <g id="text_17">
      <!-- 600 -->
      <g transform="translate(26.41375 82.156853)scale(0.1 -0.1)">
       <use xlink:href="#DejaVuSans-36"/>
       <use x="63.623047" xlink:href="#DejaVuSans-30"/>
       <use x="127.246094" xlink:href="#DejaVuSans-30"/>
      </g>
     </g>
    </g>
    <g id="ytick_8">
     <g id="line2d_17">
      <g>
       <use style="stroke:#000000;stroke-width:0.8;" x="52.50125" xlink:href="#m7f9ba3df84" y="14.599219"/>
      </g>
     </g>
     <g id="text_18">
      <!-- 700 -->
      <g transform="translate(26.41375 18.398438)scale(0.1 -0.1)">
       <use xlink:href="#DejaVuSans-37"/>
       <use x="63.623047" xlink:href="#DejaVuSans-30"/>
       <use x="127.246094" xlink:href="#DejaVuSans-30"/>
      </g>
     </g>
    </g>
    <g id="text_19">
     <!-- Intensity (a.u.) -->
     <g transform="translate(19.918125 281.750547)rotate(-90)scale(0.12 -0.12)">
      <defs>
       <path d="M 628 4666 
L 1259 4666 
L 1259 0 
L 628 0 
L 628 4666 
z
" id="DejaVuSans-49" transform="scale(0.015625)"/>
       <path d="M 2834 3397 
L 2834 2853 
Q 2591 2978 2328 3040 
Q 2066 3103 1784 3103 
Q 1356 3103 1142 2972 
Q 928 2841 928 2578 
Q 928 2378 1081 2264 
Q 1234 2150 1697 2047 
L 1894 2003 
Q 2506 1872 2764 1633 
Q 3022 1394 3022 966 
Q 3022 478 2636 193 
Q 2250 -91 1575 -91 
Q 1294 -91 989 -36 
Q 684 19 347 128 
L 347 722 
Q 666 556 975 473 
Q 1284 391 1588 391 
Q 1994 391 2212 530 
Q 2431 669 2431 922 
Q 2431 1156 2273 1281 
Q 2116 1406 1581 1522 
L 1381 1569 
Q 847 1681 609 1914 
Q 372 2147 372 2553 
Q 372 3047 722 3315 
Q 1072 3584 1716 3584 
Q 2034 3584 2315 3537 
Q 2597 3491 2834 3397 
z
" id="DejaVuSans-73" transform="scale(0.015625)"/>
       <path d="M 603 3500 
L 1178 3500 
L 1178 0 
L 603 0 
L 603 3500 
z
M 603 4863 
L 1178 4863 
L 1178 4134 
L 603 4134 
L 603 4863 
z
" id="DejaVuSans-69" transform="scale(0.015625)"/>
       <path d="M 2059 -325 
Q 1816 -950 1584 -1140 
Q 1353 -1331 966 -1331 
L 506 -1331 
L 506 -850 
L 844 -850 
Q 1081 -850 1212 -737 
Q 1344 -625 1503 -206 
L 1606 56 
L 191 3500 
L 800 3500 
L 1894 763 
L 2988 3500 
L 3597 3500 
L 2059 -325 
z
" id="DejaVuSans-79" transform="scale(0.015625)"/>
       <path d="M 684 794 
L 1344 794 
L 1344 0 
L 684 0 
L 684 794 
z
" id="DejaVuSans-2e" transform="scale(0.015625)"/>
       <path d="M 544 1381 
L 544 3500 
L 1119 3500 
L 1119 1403 
Q 1119 906 1312 657 
Q 1506 409 1894 409 
Q 2359 409 2629 706 
Q 2900 1003 2900 1516 
L 2900 3500 
L 3475 3500 
L 3475 0 
L 2900 0 
L 2900 538 
Q 2691 219 2414 64 
Q 2138 -91 1772 -91 
Q 1169 -91 856 284 
Q 544 659 544 1381 
z
M 1991 3584 
L 1991 3584 
z
" id="DejaVuSans-75" transform="scale(0.015625)"/>
      </defs>
      <use xlink:href="#DejaVuSans-49"/>
      <use x="29.492188" xlink:href="#DejaVuSans-6e"/>
      <use x="92.871094" xlink:href="#DejaVuSans-74"/>
      <use x="132.080078" xlink:href="#DejaVuSans-65"/>
      <use x="193.603516" xlink:href="#DejaVuSans-6e"/>
      <use x="256.982422" xlink:href="#DejaVuSans-73"/>
      <use x="309.082031" xlink:href="#DejaVuSans-69"/>
      <use x="336.865234" xlink:href="#DejaVuSans-74"/>
      <use x="376.074219" xlink:href="#DejaVuSans-79"/>
      <use x="435.253906" xlink:href="#DejaVuSans-20"/>
      <use x="467.041016" xlink:href="#DejaVuSans-28"/>
      <use x="506.054688" xlink:href="#DejaVuSans-61"/>
      <use x="567.333984" xlink:href="#DejaVuSans-2e"/>
      <use x="599.121094" xlink:href="#DejaVuSans-75"/>
      <use x="662.5" xlink:href="#DejaVuSans-2e"/>
      <use x="694.287109" xlink:href="#DejaVuSans-29"/>
     </g>
    </g>
   </g>
   <g id="line2d_18">
    <path clip-path="url(#pf90497640e)" d="M 52.473225 446.450012 
L 52.831084 445.718575 
L 52.951807 445.365099 
L 53.070375 446.305918 
L 53.188942 445.954481 
L 53.309666 446.33123 
L 53.546801 445.296048 
L 53.667524 445.587042 
L 53.786092 446.201928 
L 54.023227 445.40635 
L 54.262518 445.990314 
L 54.381086 445.551911 
L 54.501809 446.008548 
L 54.620377 445.246189 
L 54.738944 446.273783 
L 54.859668 445.103498 
L 54.978235 446.051394 
L 55.096803 444.964122 
L 55.217526 445.830599 
L 55.454662 445.450599 
L 55.693953 446.04878 
L 55.81252 445.940518 
L 55.933244 444.857645 
L 56.170379 445.454807 
L 56.291102 445.589656 
L 56.40967 445.400038 
L 56.646805 444.859048 
L 56.767529 444.588139 
L 56.886096 446.262498 
L 57.004664 444.775078 
L 57.243955 444.882575 
L 57.362523 445.424713 
L 57.483246 444.429253 
L 57.601814 445.0523 
L 57.720381 444.545102 
L 57.841105 444.926759 
L 57.959672 444.743645 
L 58.07824 445.768498 
L 58.198963 445.666166 
L 58.317531 445.000464 
L 58.436099 445.378488 
L 58.67539 444.844575 
L 58.793957 444.816075 
L 58.912525 444.463236 
L 59.033248 444.744155 
L 59.151816 444.310216 
L 59.270383 445.240005 
L 59.391107 445.123837 
L 59.628242 444.484595 
L 59.748966 444.533753 
L 59.986101 444.963612 
L 60.106824 444.45093 
L 60.225392 445.232417 
L 60.58325 443.703554 
L 60.701818 443.750991 
L 60.820386 444.124232 
L 61.059677 443.252974 
L 61.298968 444.646095 
L 61.417535 444.535283 
L 61.536103 443.779044 
L 61.656826 444.479048 
L 61.775394 443.966111 
L 61.893962 444.181742 
L 62.014685 443.346507 
L 62.370388 444.157642 
L 62.609679 443.54148 
L 62.728247 444.480578 
L 62.84897 444.290004 
L 62.967538 442.889742 
L 63.086105 444.389914 
L 63.206829 443.229765 
L 63.443964 444.130736 
L 63.564687 442.801118 
L 63.683255 442.84645 
L 63.801823 443.622199 
L 63.92039 443.589172 
L 64.159681 443.190873 
L 64.278249 444.050081 
L 64.398972 442.953947 
L 64.51754 443.405802 
L 64.636107 443.369269 
L 64.756831 443.49736 
L 64.875398 443.135275 
L 64.993966 443.182265 
L 65.112534 442.655175 
L 65.233257 443.031541 
L 65.351825 442.997876 
L 65.470392 442.306607 
L 65.591116 443.098678 
L 65.709683 442.820245 
L 65.828251 443.285363 
L 65.948974 442.842178 
L 66.067542 443.058064 
L 66.18611 442.20147 
L 66.306833 442.335872 
L 66.425401 442.222446 
L 66.543968 441.616678 
L 66.662536 443.571447 
L 66.783259 442.395423 
L 66.901827 442.61896 
L 67.141118 442.656577 
L 67.259686 442.799205 
L 67.378253 441.219845 
L 67.498977 442.673792 
L 67.617544 442.652624 
L 67.736112 442.059097 
L 67.85468 442.118839 
L 67.975403 442.586634 
L 68.093971 441.994382 
L 68.212538 442.866725 
L 68.333262 442.681124 
L 68.451829 441.764661 
L 68.570397 442.633688 
L 68.69112 441.55598 
L 69.046823 442.774722 
L 69.167547 441.777731 
L 69.286114 442.075037 
L 69.404682 441.806486 
L 69.525405 441.212959 
L 69.643973 441.830842 
L 69.76254 441.235912 
L 69.883264 442.175584 
L 70.001831 442.144661 
L 70.120399 442.273772 
L 70.238967 441.99757 
L 70.35969 441.316758 
L 70.478258 442.66155 
L 70.717549 441.137724 
L 70.836116 442.079564 
L 71.312543 441.14563 
L 71.551834 441.568412 
L 71.670401 440.801016 
L 71.788969 440.928724 
L 71.909692 441.708872 
L 72.02826 440.611335 
L 72.265395 442.338232 
L 72.504686 441.115855 
L 72.623254 441.077728 
L 72.743977 440.379764 
L 72.862545 441.743748 
L 73.457539 440.561603 
L 73.815397 440.114784 
L 73.936121 441.250449 
L 74.291824 440.238667 
L 74.412547 440.462842 
L 74.531115 440.185429 
L 74.649682 440.409412 
L 74.770406 441.051906 
L 74.888973 440.10962 
L 75.007541 440.089345 
L 75.126109 440.570147 
L 75.246832 439.968204 
L 75.3654 439.949267 
L 75.483967 439.600509 
L 75.604691 440.080227 
L 75.723258 439.48415 
L 75.841826 440.293308 
L 76.081117 439.938301 
L 76.199685 440.336664 
L 76.318252 440.327291 
L 76.438976 440.074106 
L 76.676111 440.294647 
L 77.03397 439.612559 
L 77.273261 440.302107 
L 77.510396 439.792039 
L 77.628963 440.568553 
L 77.749687 440.153741 
L 77.868254 440.213482 
L 77.986822 439.481663 
L 78.107545 439.619063 
L 78.226113 440.307462 
L 78.344681 439.656744 
L 78.465404 439.948757 
L 78.583972 439.768895 
L 78.702539 440.843926 
L 79.060398 439.505381 
L 79.178966 439.629009 
L 79.297533 440.223237 
L 79.418257 439.323479 
L 79.536824 440.308227 
L 79.655392 439.481791 
L 79.776115 439.755888 
L 79.894683 438.920589 
L 80.013251 439.589543 
L 80.133974 438.669955 
L 80.252542 439.02273 
L 80.371109 439.777821 
L 80.6104 439.051549 
L 80.728968 438.92875 
L 80.847535 438.96624 
L 80.966103 439.246458 
L 81.086826 439.040519 
L 81.205394 439.321821 
L 81.323962 438.95266 
L 81.444685 439.235938 
L 81.563253 438.865502 
L 81.68182 437.754512 
L 81.800388 438.858935 
L 82.039679 438.192022 
L 82.158247 438.398854 
L 82.27897 438.276565 
L 82.516105 438.537082 
L 82.634673 438.921163 
L 82.873964 438.362257 
L 82.992532 438.667405 
L 83.113255 438.390884 
L 83.35039 438.929197 
L 83.826817 437.601683 
L 83.945384 438.656629 
L 84.184675 437.716384 
L 84.303243 438.359005 
L 84.423966 438.101485 
L 84.542534 438.581458 
L 84.661101 437.515035 
L 84.779669 438.644707 
L 85.01896 437.818206 
L 85.137528 438.931428 
L 85.256095 438.51872 
L 85.376819 438.50667 
L 85.495386 438.891452 
L 85.613954 437.68629 
L 85.734677 437.989079 
L 85.853245 437.500243 
L 85.971813 438.746656 
L 86.211104 437.372917 
L 86.329671 438.452602 
L 86.448239 437.727159 
L 86.566807 438.176911 
L 86.68753 438.077193 
L 86.924665 437.554884 
L 87.045389 438.459616 
L 87.282524 437.295068 
L 87.401091 437.806156 
L 87.640382 437.097609 
L 87.75895 437.763183 
L 87.879674 436.930051 
L 87.998241 437.597921 
L 88.116809 437.077525 
L 88.235376 438.146817 
L 88.3561 436.987115 
L 88.474667 437.423733 
L 88.593235 437.381844 
L 88.832526 437.545703 
L 88.951094 436.140212 
L 89.188229 437.441458 
L 89.308952 436.602525 
L 89.42752 436.895239 
L 89.666811 436.594682 
L 89.785379 437.21282 
L 89.903946 436.860427 
L 90.261805 437.255857 
L 90.380373 436.013652 
L 90.619664 436.601186 
L 90.738231 436.734951 
L 90.856799 435.734581 
L 90.977522 435.946769 
L 91.214657 436.778115 
L 91.333225 436.021175 
L 91.453948 436.154494 
L 91.572516 437.017145 
L 91.691084 435.699387 
L 91.809651 435.839209 
L 91.930375 435.495041 
L 92.16751 436.337481 
L 92.286078 436.233937 
L 92.406801 435.889578 
L 92.525369 436.347746 
L 92.76466 435.497719 
L 92.883227 435.713668 
L 93.001795 436.570199 
L 93.120363 435.90641 
L 93.241086 435.882182 
L 93.359654 435.696709 
L 93.478221 434.711004 
L 93.83608 436.782323 
L 93.954647 436.274806 
L 94.073215 435.209594 
L 94.193939 436.141105 
L 94.431074 435.614524 
L 94.549641 435.353816 
L 94.670365 435.730564 
L 94.9075 435.451876 
L 95.028223 435.19646 
L 95.146791 435.811474 
L 95.383926 435.145964 
L 95.50465 435.915145 
L 95.741785 434.391 
L 95.860353 434.451061 
L 95.981076 435.523222 
L 96.099644 435.500142 
L 96.218211 434.693789 
L 96.336779 435.133212 
L 96.457502 436.19632 
L 96.57607 435.074044 
L 96.694637 435.433386 
L 96.933929 434.74148 
L 97.052496 435.330863 
L 97.171064 434.509591 
L 97.289631 435.412027 
L 97.64749 434.268839 
L 97.886781 434.978343 
L 98.123916 434.423134 
L 98.24464 434.383668 
L 98.363207 433.709933 
L 98.600343 434.42747 
L 98.721066 433.987346 
L 98.839634 434.026685 
L 98.958201 433.503483 
L 99.076769 434.106893 
L 99.197492 433.583564 
L 99.31606 434.754041 
L 99.434628 433.017389 
L 99.553195 434.110272 
L 99.673919 433.504312 
L 99.792486 434.278658 
L 99.911054 433.674037 
L 100.268912 434.469487 
L 100.38748 433.786889 
L 100.506048 434.490527 
L 100.626771 433.319476 
L 100.745339 433.941376 
L 100.863906 433.178506 
L 100.982474 433.232701 
L 101.221765 433.749654 
L 101.4589 433.449607 
L 101.579624 433.585094 
L 101.935327 432.695026 
L 102.05605 434.13399 
L 102.174618 433.624943 
L 102.293185 433.847077 
L 102.411753 433.584775 
L 102.532476 432.999345 
L 102.651044 433.707637 
L 102.769611 433.124567 
L 102.888179 433.509094 
L 103.12747 433.315141 
L 103.246038 433.696607 
L 103.364605 432.955161 
L 103.603896 433.796899 
L 103.841032 432.666271 
L 103.961755 432.974926 
L 104.080323 433.754245 
L 104.317458 432.466261 
L 104.438181 432.450577 
L 104.556749 433.291422 
L 104.675317 432.560815 
L 104.793884 432.851234 
L 104.914608 432.517714 
L 105.033175 433.585668 
L 105.151743 432.628462 
L 105.27031 433.149241 
L 105.391034 432.191399 
L 105.509601 432.554885 
L 105.628169 432.37362 
L 105.746737 432.424244 
L 105.86746 433.016432 
L 105.986028 432.520392 
L 106.104595 433.033966 
L 106.223163 431.684965 
L 106.343886 432.820312 
L 106.581022 432.133442 
L 106.699589 432.566744 
L 106.818157 431.520341 
L 106.93888 432.185724 
L 107.057448 431.604885 
L 107.176016 433.053349 
L 107.294583 432.393449 
L 107.415307 432.513634 
L 107.533874 431.615214 
L 107.652442 432.20415 
L 107.771009 432.087791 
L 107.891733 432.207466 
L 108.0103 430.984898 
L 108.247436 432.241449 
L 108.368159 431.56714 
L 108.486727 432.003758 
L 108.723862 430.64175 
L 108.844585 431.711553 
L 108.963153 430.389331 
L 109.321012 431.962315 
L 109.558147 431.094052 
L 109.676715 430.180139 
L 109.797438 431.119556 
L 109.916006 431.00613 
L 110.034573 431.21022 
L 110.271708 430.246129 
L 110.510999 430.663619 
L 110.629567 430.631804 
L 110.748135 431.165972 
L 110.868858 429.840562 
L 110.987426 431.106103 
L 111.105993 430.593421 
L 111.463852 430.687975 
L 111.58242 430.020552 
L 111.821711 430.704935 
L 111.940278 430.763083 
L 112.058846 429.856183 
L 112.295981 430.138441 
L 112.416705 429.634941 
L 112.535272 430.807522 
L 112.65384 430.69824 
L 112.772407 429.865237 
L 112.893131 430.63378 
L 113.011698 429.562065 
L 113.130266 431.229029 
L 113.488125 429.254941 
L 113.72526 429.60931 
L 114.083119 430.493448 
L 114.440977 429.691367 
L 114.559545 429.819203 
L 114.678113 428.198783 
L 114.79668 429.83323 
L 114.917404 429.322397 
L 115.154539 429.651646 
L 115.273106 428.749911 
L 115.512397 429.737337 
L 115.630965 428.683092 
L 115.749533 429.62034 
L 115.8681 429.050276 
L 115.988824 429.507488 
L 116.225959 428.352759 
L 116.344527 430.142713 
L 116.46525 429.562703 
L 116.583818 429.765327 
L 116.820953 428.673273 
L 117.060244 429.008961 
L 117.178812 428.664219 
L 117.297379 429.266162 
L 117.415947 429.076609 
L 117.53667 428.016689 
L 117.655238 429.174223 
L 117.773805 428.989323 
L 117.892373 429.123854 
L 118.131664 428.989834 
L 118.250232 428.171494 
L 118.368799 428.698585 
L 118.487367 428.201779 
L 118.60809 428.576998 
L 118.963793 428.050226 
L 119.44022 428.218293 
L 119.558787 428.041937 
L 119.679511 428.098682 
L 119.916646 428.834263 
L 120.155937 427.390836 
L 120.274504 428.453561 
L 120.393072 428.193682 
L 120.51164 428.709615 
L 120.630207 427.282638 
L 120.750931 427.55935 
L 120.869498 427.523964 
L 120.988066 427.798125 
L 121.106634 427.213078 
L 121.345925 428.139232 
L 121.464492 427.935142 
L 121.58306 427.804437 
L 121.822351 426.98495 
L 122.059486 427.42246 
L 122.298777 426.338249 
L 122.417345 427.728628 
L 122.65448 426.649963 
L 122.773048 427.166789 
L 122.893771 426.954856 
L 123.012339 426.170755 
L 123.130906 426.290302 
L 123.370197 426.865786 
L 123.607333 425.88346 
L 123.7259 425.59897 
L 123.844468 425.649148 
L 123.965191 427.022568 
L 124.202327 425.484268 
L 124.320894 426.197661 
L 124.439462 426.176366 
L 124.79732 425.083355 
L 124.915888 425.494533 
L 125.036611 425.338325 
L 125.273747 426.085383 
L 125.631605 425.556634 
L 125.750173 426.277104 
L 125.868741 425.733755 
L 125.987308 426.212007 
L 126.105876 425.823399 
L 126.226599 425.976547 
L 126.345167 425.43103 
L 126.463734 425.659668 
L 126.582302 426.189245 
L 126.703025 426.024302 
L 126.940161 424.532355 
L 127.058728 426.508037 
L 127.416587 425.593933 
L 127.535155 425.484141 
L 127.653722 425.90705 
L 127.893013 424.665674 
L 128.011581 424.229822 
L 128.130149 425.029926 
L 128.248716 424.513228 
L 128.36944 424.76552 
L 128.488007 423.38362 
L 128.725142 425.236376 
L 128.84371 423.148734 
L 129.083001 425.346805 
L 129.201569 424.60912 
L 129.320136 425.602731 
L 129.559427 424.200493 
L 129.677995 424.63813 
L 129.796563 424.363778 
L 129.91513 424.565063 
L 130.033698 423.661351 
L 130.154421 423.785808 
L 130.272989 424.305311 
L 130.391557 423.162697 
L 130.510124 424.080691 
L 130.628692 423.49711 
L 130.749415 424.500348 
L 130.867983 423.524717 
L 130.98655 424.134758 
L 131.225841 423.534217 
L 131.344409 423.987667 
L 131.700112 423.063616 
L 131.820835 423.988751 
L 131.939403 423.26165 
L 132.057971 423.322284 
L 132.176538 423.620419 
L 132.295106 424.858097 
L 132.534397 422.788371 
L 132.771532 424.003798 
L 132.8901 422.585556 
L 133.010823 422.641599 
L 133.129391 423.547543 
L 133.247958 423.439153 
L 133.366526 423.635338 
L 133.724385 420.998928 
L 133.96152 423.089694 
L 134.200811 422.513317 
L 134.437946 421.608075 
L 134.556514 422.579371 
L 134.675081 421.240189 
L 134.914372 422.962049 
L 135.151508 421.635555 
L 135.270075 422.139374 
L 135.390799 421.026662 
L 135.509366 421.13875 
L 135.865069 420.537317 
L 135.985793 422.065223 
L 136.10436 422.126176 
L 136.222928 421.947589 
L 136.699354 420.470052 
L 136.936489 421.579257 
L 137.055057 420.443337 
L 137.17578 420.915978 
L 137.294348 419.940793 
L 137.650051 422.127388 
L 137.768619 420.273484 
L 137.889342 421.526401 
L 138.00791 420.14635 
L 138.126477 421.078371 
L 138.245045 420.499827 
L 138.363612 420.800639 
L 138.484336 420.788716 
L 138.602904 421.170629 
L 138.721471 420.995166 
L 138.958606 419.229695 
L 139.197897 420.076726 
L 139.316465 419.90681 
L 139.435033 420.288021 
L 139.674324 419.562259 
L 139.792891 420.491474 
L 140.030027 418.533772 
L 140.148594 419.772598 
L 140.269318 419.690477 
L 140.387885 418.994172 
L 140.506453 420.920632 
L 140.62502 419.915863 
L 140.743588 420.289998 
L 140.862156 419.896098 
L 140.982879 420.10835 
L 141.101447 419.480138 
L 141.220014 420.603179 
L 141.338582 419.431236 
L 141.45715 420.39386 
L 141.577873 418.143252 
L 141.696441 420.323025 
L 141.815008 418.0684 
L 141.933576 420.403488 
L 142.172867 418.637635 
L 142.291435 419.208464 
L 142.410002 419.015658 
L 142.52857 417.980923 
L 142.765705 419.532357 
L 142.886428 418.035883 
L 143.004996 420.082209 
L 143.242131 417.851621 
L 143.481422 418.399051 
L 143.59999 418.27689 
L 143.718558 417.618456 
L 143.837125 418.355567 
L 143.955693 417.93202 
L 144.076416 418.903635 
L 144.194984 418.013504 
L 144.313551 418.363665 
L 144.550687 417.671631 
L 144.669254 418.495262 
L 144.789978 415.741217 
L 144.908545 417.887708 
L 145.027113 416.999043 
L 145.145681 417.82344 
L 145.264248 416.544701 
L 145.384972 416.825429 
L 145.503539 417.883373 
L 145.740675 416.098966 
L 145.859242 417.623557 
L 145.97781 416.342714 
L 146.098533 417.327399 
L 146.217101 416.669412 
L 146.335668 416.943765 
L 146.454236 416.352788 
L 146.572804 417.014855 
L 146.693527 415.721835 
L 146.812095 415.764043 
L 146.930662 417.458359 
L 147.04923 415.782342 
L 147.167798 415.751993 
L 147.407089 414.994033 
L 147.644224 417.316688 
L 147.762791 415.27916 
L 147.881359 415.90514 
L 147.999927 415.901442 
L 148.12065 416.062305 
L 148.239218 415.060086 
L 148.357785 416.609416 
L 148.594921 414.272415 
L 148.834212 416.316892 
L 148.952779 415.226559 
L 149.189915 415.703026 
L 149.308482 415.567476 
L 149.666341 414.456358 
L 149.784908 414.723569 
L 149.903476 413.923656 
L 150.022044 414.205532 
L 150.261335 415.066143 
L 150.379902 414.754173 
L 150.49847 415.64864 
L 150.617038 413.7232 
L 150.737761 415.601778 
L 150.974896 414.56615 
L 151.093464 414.847197 
L 151.330599 413.356079 
L 151.451322 413.25483 
L 151.56989 413.684626 
L 151.688458 413.509609 
L 151.807025 412.200776 
L 152.044161 414.510552 
L 152.283452 412.259434 
L 152.402019 413.896368 
L 152.520587 412.584092 
L 152.639155 412.563625 
L 152.757722 412.907347 
L 152.878446 412.108135 
L 152.997013 413.357354 
L 153.115581 412.25631 
L 153.234148 413.965035 
L 153.471284 412.596079 
L 153.592007 412.089645 
L 153.829142 413.264267 
L 154.066278 411.606867 
L 154.184845 413.864935 
L 154.305569 411.924511 
L 154.424136 412.255099 
L 154.542704 412.049223 
L 154.779839 410.577551 
L 154.898407 412.208746 
L 155.01913 411.846917 
L 155.137698 412.591679 
L 155.256265 412.273078 
L 155.374833 410.1234 
L 155.493401 412.070709 
L 155.611968 411.939877 
L 155.732692 410.117343 
L 155.851259 410.571239 
L 156.088395 409.966171 
L 156.206962 411.340293 
L 156.32553 410.54344 
L 156.446253 411.744967 
L 156.564821 409.669121 
L 156.801956 412.921438 
L 157.039091 408.561382 
L 157.159815 410.59687 
L 157.39695 409.207 
L 157.515518 409.125389 
L 157.634085 409.571889 
L 157.752653 410.694101 
L 157.873376 409.253289 
L 157.991944 409.250993 
L 158.110511 409.47555 
L 158.229079 409.098419 
L 158.347647 411.268118 
L 158.466214 408.941382 
L 158.586938 409.083054 
L 158.824073 409.657071 
L 159.061208 408.897325 
L 159.179776 410.518574 
L 159.419067 408.895668 
L 159.537635 408.863278 
L 159.656202 408.313362 
L 159.77477 409.759913 
L 159.893337 408.746855 
L 160.011905 408.760946 
L 160.251196 407.302409 
L 160.369764 409.133742 
L 160.606899 407.206261 
L 160.725467 408.662886 
L 160.84619 407.672207 
L 160.964758 408.496285 
L 161.32046 405.09828 
L 161.678319 407.453197 
L 161.796887 406.40316 
L 161.915454 406.454549 
L 162.034022 404.732944 
L 162.15259 404.709673 
L 162.271157 404.454766 
L 162.391881 405.06825 
L 162.510448 404.119652 
L 162.629016 406.004989 
L 162.866151 404.043397 
L 162.984719 404.031092 
L 163.103286 403.199236 
L 163.342577 405.201441 
L 163.461145 405.182378 
L 163.579713 404.923901 
L 163.69828 404.114743 
L 163.816848 405.048549 
L 163.937571 403.926592 
L 164.056139 404.313669 
L 164.174707 405.160381 
L 164.293274 403.701142 
L 164.411842 404.454256 
L 164.530409 403.137518 
L 164.7697 403.663206 
L 164.888268 402.835813 
L 165.006836 404.533126 
L 165.125403 401.95244 
L 165.243971 402.30343 
L 165.481106 403.902236 
L 165.60183 401.787624 
L 165.720397 402.826823 
L 165.838965 400.699906 
L 166.0761 402.934383 
L 166.194668 402.679605 
L 166.313235 402.849776 
L 166.552526 400.885315 
L 166.671094 402.240756 
L 166.789662 402.059682 
L 166.908229 402.665004 
L 167.026797 400.350446 
L 167.14752 400.91694 
L 167.266088 400.166375 
L 167.503223 402.592319 
L 167.621791 401.621151 
L 167.740358 402.54584 
L 167.858926 400.029167 
L 167.979649 399.877932 
L 168.098217 400.877983 
L 168.216785 400.517621 
L 168.335352 399.793325 
L 168.45392 400.915728 
L 168.572488 399.627553 
L 168.691055 399.853832 
L 168.811779 399.253801 
L 168.930346 401.056826 
L 169.048914 399.098805 
L 169.167481 399.772731 
L 169.404617 401.805604 
L 169.762475 399.140949 
L 169.999611 400.000157 
L 170.236746 398.917986 
L 170.594604 401.84692 
L 170.713172 398.978747 
L 170.83174 400.130607 
L 170.950307 399.661664 
L 171.068875 401.676239 
L 171.30601 399.56252 
L 171.426734 399.592613 
L 171.545301 398.802774 
L 171.663869 399.038298 
L 171.782437 397.067461 
L 171.901004 398.358123 
L 172.019572 397.630066 
L 172.138139 398.594412 
L 172.258863 395.983568 
L 172.495998 397.806549 
L 172.733133 399.044164 
L 172.851701 398.545318 
L 172.970269 396.476421 
L 173.20956 397.082763 
L 173.328127 396.688099 
L 173.446695 395.414206 
L 173.565262 397.128032 
L 173.68383 396.056891 
L 173.802398 396.829005 
L 174.278824 393.980917 
L 174.397392 395.153434 
L 174.634527 394.589809 
L 174.873818 395.184675 
L 175.110953 393.757125 
L 175.229521 395.838837 
L 175.348088 391.270546 
L 175.466656 392.687258 
L 175.585224 392.049037 
L 175.703791 395.10434 
L 175.824515 392.199506 
L 176.06165 394.030011 
L 176.180218 392.75548 
L 176.298785 394.239776 
L 176.53592 392.979909 
L 176.654488 394.380682 
L 176.775211 394.273568 
L 176.893779 394.469306 
L 177.012347 393.608567 
L 177.130914 391.850748 
L 177.249482 392.027996 
L 177.36805 392.935916 
L 177.725908 390.363902 
L 177.844476 391.385312 
L 177.963043 391.340043 
L 178.081611 392.68407 
L 178.318746 390.499707 
L 178.437314 391.776788 
L 178.558037 391.704741 
L 178.676605 388.938264 
L 178.795173 391.44907 
L 179.032308 389.679136 
L 179.269443 389.470009 
L 179.388011 390.033633 
L 179.627302 388.938901 
L 179.745869 386.719471 
L 179.864437 389.259606 
L 179.983005 388.856015 
L 180.101572 387.240377 
L 180.22014 388.715747 
L 180.338707 387.528565 
L 180.457275 389.390948 
L 180.577999 388.001015 
L 180.815134 390.946654 
L 180.933701 388.479203 
L 181.052269 390.661653 
L 181.170837 387.892626 
L 181.289404 389.608364 
L 181.647263 386.818296 
L 181.765831 386.985343 
L 181.884398 387.767659 
L 182.002966 390.331385 
L 182.121533 389.799002 
L 182.358669 387.108397 
L 182.479392 386.75135 
L 182.59796 384.903631 
L 182.716527 386.95729 
L 182.835095 385.601786 
L 182.953663 385.829403 
L 183.07223 385.715276 
L 183.427933 381.410945 
L 183.548656 385.696148 
L 183.667224 385.267692 
L 183.904359 382.684201 
L 184.141495 383.994436 
L 184.260062 381.857254 
L 184.37863 383.686483 
L 184.497197 380.430978 
L 184.736488 382.163294 
L 184.855056 382.765811 
L 184.973624 381.332522 
L 185.092191 381.765442 
L 185.210759 381.303193 
L 185.329327 382.363496 
L 185.568618 379.866716 
L 185.805753 383.555778 
L 185.924321 381.197354 
L 186.042888 381.658965 
L 186.161456 381.449838 
L 186.280023 382.774738 
L 186.398591 381.280878 
L 186.517159 381.458764 
L 186.637882 379.322219 
L 186.875017 381.366952 
L 186.993585 379.837387 
L 187.112153 381.558227 
L 187.349288 379.592555 
L 187.586423 381.71316 
L 187.825714 376.94148 
L 187.944282 376.997588 
L 188.062849 378.433427 
L 188.181417 374.08064 
L 188.418552 377.029467 
L 188.655687 373.554633 
L 188.776411 375.541983 
L 189.013546 371.927518 
L 189.132114 375.288224 
L 189.369249 373.183559 
L 189.606384 371.575572 
L 189.724952 373.192485 
L 189.964243 371.302048 
L 190.082811 373.641982 
L 190.201378 371.16433 
L 190.438513 373.016512 
L 190.557081 372.822049 
L 190.675649 375.362822 
L 190.912784 373.346781 
L 191.031352 373.246042 
L 191.152075 375.560473 
L 191.270643 372.958492 
L 191.38921 375.285037 
L 191.626345 372.765304 
L 191.744913 373.416277 
L 191.982048 371.435941 
L 192.221339 373.960137 
L 192.577042 371.540505 
L 192.814177 373.208425 
L 192.932745 369.780773 
L 193.051313 373.196948 
L 193.16988 372.912586 
L 193.407016 369.900001 
L 193.646307 372.533223 
L 194.002009 368.912383 
L 194.120577 370.461075 
L 194.239145 370.369263 
L 194.357712 371.352417 
L 194.715571 364.462046 
L 194.834139 365.469428 
L 194.952706 364.729193 
L 195.071274 366.888691 
L 195.308409 362.213286 
L 195.78268 367.380906 
L 195.903403 367.112483 
L 196.140538 365.153824 
L 196.259106 361.340434 
L 196.496241 365.850704 
L 196.614809 362.90379 
L 196.733376 363.276777 
L 196.851944 364.156005 
L 196.970512 363.393454 
L 197.209803 365.269865 
L 197.32837 363.104629 
L 197.446938 364.707515 
L 197.802641 360.844393 
L 198.158344 362.846407 
L 198.276911 359.240869 
L 198.395479 361.743387 
L 198.516202 358.383956 
L 198.63477 358.964795 
L 198.753338 354.617109 
L 198.990473 360.025735 
L 199.10904 357.577412 
L 199.227608 362.186508 
L 199.346176 358.410097 
L 199.464743 362.792213 
L 199.583311 356.872881 
L 199.701879 359.326943 
L 199.94117 355.808753 
L 200.059737 355.654458 
L 200.178305 355.720129 
L 200.296872 358.394795 
L 200.41544 355.654458 
L 200.534008 357.421204 
L 200.652575 352.050195 
L 200.771143 352.303316 
L 200.889711 352.990631 
L 201.008278 351.930329 
L 201.126846 356.5407 
L 201.484704 352.305229 
L 201.603272 353.088182 
L 201.840407 355.500163 
L 202.077543 351.210497 
L 202.314678 354.297679 
L 202.433245 352.063584 
L 202.551813 352.591504 
L 202.672536 354.346773 
L 202.909672 351.966034 
L 203.028239 356.927076 
L 203.146807 349.561704 
L 203.265375 353.03335 
L 203.383942 351.538215 
L 203.50251 353.129625 
L 203.739645 349.659254 
L 203.97678 352.150296 
L 204.095348 349.905999 
L 204.216071 351.734591 
L 204.334639 347.692307 
L 204.453207 348.780663 
L 204.571774 348.507777 
L 204.690342 349.367878 
L 204.80891 348.60214 
L 205.046045 344.133312 
L 205.164612 346.525528 
L 205.520315 343.12848 
L 205.638883 343.307641 
L 205.759606 343.208178 
L 205.878174 341.16217 
L 205.996742 342.308547 
L 206.115309 345.173212 
L 206.352444 342.59801 
L 206.471012 344.68546 
L 206.58958 343.424956 
L 206.708147 339.398613 
L 206.826715 341.370023 
L 206.945283 341.38405 
L 207.06385 341.239318 
L 207.184574 340.295056 
L 207.303141 344.035762 
L 207.540276 336.357336 
L 207.777412 338.824149 
L 207.895979 338.014417 
L 208.133115 334.359147 
L 208.251682 336.154584 
L 208.37025 339.942472 
L 208.488817 337.91878 
L 208.607385 332.733308 
L 208.725953 334.565725 
L 208.84452 334.234181 
L 208.965244 338.052035 
L 209.202379 333.673107 
L 209.439514 335.497235 
L 209.558082 331.879583 
L 209.676649 333.587671 
L 209.795217 333.105657 
L 210.032352 331.46324 
L 210.15092 334.667738 
L 210.388055 329.81126 
L 210.506623 332.351395 
L 210.627346 332.453408 
L 210.745914 328.608776 
L 210.864482 328.453843 
L 210.983049 331.491931 
L 211.220184 329.769179 
L 211.45732 328.557769 
L 211.575887 331.500858 
L 211.694455 326.994413 
L 211.813022 331.285992 
L 211.93159 328.666796 
L 212.050158 329.906897 
L 212.168725 327.696393 
L 212.405861 329.493743 
L 212.526584 326.12156 
L 212.645152 327.639648 
L 212.763719 326.856057 
L 212.882287 323.027364 
L 213.000855 323.801391 
L 213.119422 328.386897 
L 213.23799 322.377028 
L 213.356557 325.485251 
L 213.593693 323.606291 
L 213.71226 323.905318 
L 213.830828 325.760688 
L 213.949396 322.938102 
L 214.067963 325.946862 
L 214.186531 320.918873 
L 214.425822 323.356995 
L 214.544389 323.694277 
L 214.662957 321.626592 
L 214.900092 324.9076 
L 215.01866 324.60411 
L 215.137228 325.710956 
L 215.255795 321.448068 
L 215.49293 327.073473 
L 215.730066 323.493438 
L 215.848633 322.447163 
L 215.967201 322.516022 
L 216.085769 323.449445 
L 216.204336 327.432433 
L 216.443627 324.289143 
L 216.562195 326.560856 
L 216.79933 322.120082 
L 216.917898 321.483135 
L 217.036465 323.594177 
L 217.155033 323.367197 
L 217.273601 321.507364 
L 217.510736 322.150686 
L 217.629303 322.088203 
L 217.747871 324.83619 
L 218.103574 317.846993 
L 218.459277 321.815317 
L 218.58 320.748638 
L 218.817135 316.590952 
L 218.935703 317.086355 
L 219.054271 313.864005 
L 219.172838 314.157931 
L 219.291406 316.162496 
L 219.409974 313.08679 
L 219.528541 314.529643 
L 219.647109 312.208199 
L 219.765676 312.494474 
L 220.002812 306.703935 
L 220.121379 307.425042 
L 220.239947 309.208365 
L 220.358515 306.148599 
L 220.59565 311.492192 
L 220.714217 302.40853 
L 221.072076 309.281688 
L 221.309211 301.961584 
L 221.427779 307.215277 
L 221.546347 303.612289 
L 221.902049 306.831452 
L 222.139185 303.396786 
L 222.257752 304.063061 
L 222.37632 304.037558 
L 222.494888 304.143397 
L 222.613455 301.391584 
L 222.732023 304.955041 
L 222.85059 304.6439 
L 222.969158 304.712759 
L 223.087726 301.893362 
L 223.324861 305.331854 
L 223.443429 303.831618 
L 223.561996 299.50816 
L 223.68272 299.297757 
L 223.801287 300.206315 
L 223.919855 298.378361 
L 224.038423 302.982994 
L 224.15699 297.444938 
L 224.275558 298.84316 
L 224.631261 292.91809 
L 224.749828 296.180608 
L 224.868396 295.179601 
L 224.986964 290.942855 
L 225.105531 293.403292 
L 225.224099 291.473962 
L 225.342666 295.455038 
L 225.579802 290.49017 
L 225.698369 294.388997 
L 225.816937 294.573896 
L 226.054072 290.58262 
L 226.17264 294.302285 
L 226.291207 290.525875 
L 226.409775 296.314501 
L 226.528343 292.954433 
L 226.64691 297.188629 
L 226.767634 293.387352 
L 226.886201 300.03863 
L 227.123337 296.128964 
L 227.241904 294.849333 
L 227.360472 292.317486 
L 227.479039 294.018561 
L 227.597607 293.264936 
L 227.716175 293.550574 
L 227.834742 289.982653 
L 227.95331 292.460305 
L 228.071878 285.678322 
L 228.190445 287.424028 
L 228.42758 287.290135 
L 228.664716 284.064597 
L 228.783283 286.361812 
L 228.901851 283.12671 
L 229.020419 283.591509 
L 229.138986 283.413623 
L 229.257554 279.678655 
L 229.376121 281.699797 
L 229.494689 281.580569 
L 229.731824 286.331846 
L 229.850392 285.458356 
L 230.087527 278.191809 
L 230.324662 281.976509 
L 230.563953 283.202583 
L 230.682521 281.075602 
L 230.801089 281.315971 
L 230.919656 283.194294 
L 231.156792 282.707818 
L 231.275359 288.006142 
L 231.512494 278.131876 
L 231.631062 278.86446 
L 231.74963 287.127551 
L 231.868197 282.598153 
L 231.986765 285.269631 
L 232.342468 282.226442 
L 232.461035 275.869728 
L 232.698171 284.797181 
L 232.816738 280.045904 
L 232.935306 283.077616 
L 233.053874 279.673555 
L 233.172441 280.837146 
L 233.291009 278.153554 
L 233.409576 287.177283 
L 233.528144 279.092078 
L 233.765279 283.324362 
L 233.883847 277.431171 
L 234.002415 280.443119 
L 234.120982 275.920734 
L 234.23955 278.044527 
L 234.358117 278.06238 
L 234.476685 282.429193 
L 234.595253 275.48909 
L 234.832388 279.417883 
L 234.950956 271.479323 
L 235.190247 277.950802 
L 235.427382 274.398821 
L 235.545949 274.104257 
L 235.664517 275.640197 
L 235.901652 274.324224 
L 236.138788 276.802513 
L 236.257355 268.03063 
L 236.49449 273.260096 
L 236.731626 275.047882 
L 236.850193 273.998418 
L 237.087329 268.59553 
L 237.324464 273.807143 
L 237.443031 266.694254 
L 237.561599 271.357545 
L 237.798734 266.689153 
L 237.917302 267.346503 
L 238.03587 262.62838 
L 238.154437 265.20422 
L 238.273005 264.052105 
L 238.391572 267.345228 
L 238.51014 257.640559 
L 238.747275 259.717171 
L 238.865843 253.713678 
L 239.102978 259.307204 
L 239.221546 254.605021 
L 239.340113 256.190693 
L 239.577249 253.208712 
L 239.814384 256.436163 
L 239.932952 248.050656 
L 240.051519 248.917133 
L 240.170087 252.672503 
L 240.288654 250.924248 
L 240.407222 246.115588 
L 240.52579 246.616729 
L 240.644357 255.092773 
L 240.881493 247.539313 
L 241.118628 247.545052 
L 241.237195 251.383946 
L 241.355763 244.901628 
L 241.711466 253.912605 
L 241.830034 254.706397 
L 241.948601 254.674518 
L 242.067169 259.245996 
L 242.185736 258.090694 
L 242.304304 258.053714 
L 242.422872 256.887572 
L 242.541439 252.02408 
L 242.660007 254.10643 
L 242.778575 251.769047 
L 242.897142 255.400726 
L 243.01571 255.589451 
L 243.134277 255.029014 
L 243.252845 248.128441 
L 243.371413 252.509919 
L 243.48998 249.848643 
L 243.608548 249.995288 
L 243.727116 256.970458 
L 243.964251 252.694181 
L 244.082818 254.227571 
L 244.319954 248.516092 
L 244.557089 246.364883 
L 244.675657 246.869212 
L 244.794224 248.922233 
L 244.912792 248.356059 
L 245.031359 238.907699 
L 245.149927 238.421222 
L 245.387062 243.796694 
L 245.50563 234.472026 
L 245.624198 238.067363 
L 245.861333 235.891926 
L 245.9799 230.40934 
L 246.217036 241.131593 
L 246.572739 231.048837 
L 246.691306 231.129173 
L 246.809874 231.742528 
L 247.047009 237.578974 
L 247.165577 227.964205 
L 247.284144 230.249306 
L 247.402712 228.408601 
L 247.52128 234.403167 
L 247.639847 229.961118 
L 247.876982 236.104242 
L 247.99555 236.596457 
L 248.114118 238.675619 
L 248.351253 230.242931 
L 248.588388 234.739812 
L 248.706956 235.29451 
L 248.825523 238.961894 
L 249.062659 236.518034 
L 249.299794 237.604477 
L 249.418362 237.794477 
L 249.536929 239.573975 
L 249.892632 232.627495 
L 250.0112 233.510549 
L 250.129767 231.28028 
L 250.366903 237.557296 
L 250.604038 232.695079 
L 250.841173 227.157661 
L 250.959741 234.014241 
L 251.078308 232.421556 
L 251.315444 224.454304 
L 251.552579 228.651521 
L 251.789714 223.42333 
L 251.908282 225.887593 
L 252.026849 223.783566 
L 252.263985 215.226549 
L 252.382552 211.183628 
L 252.619687 217.898026 
L 252.738255 216.727422 
L 253.093958 203.000873 
L 253.212526 202.458288 
L 253.331093 207.88668 
L 253.686796 204.656679 
L 253.805364 202.955604 
L 253.923931 203.633356 
L 254.042499 205.509129 
L 254.398202 215.665844 
L 254.753905 207.20829 
L 255.109608 221.824269 
L 255.344587 218.126281 
L 255.463155 219.337691 
L 255.581722 212.657084 
L 255.70029 216.361448 
L 255.937425 213.263427 
L 256.17456 203.242517 
L 256.293128 202.983658 
L 256.648831 197.485132 
L 257.241669 173.629283 
L 257.360237 174.633478 
L 257.478804 176.660358 
L 257.597372 175.068948 
L 257.71594 170.440087 
L 257.953075 153.951524 
L 258.071642 153.845685 
L 258.308778 161.052298 
L 258.545913 157.80572 
L 258.664481 157.434008 
L 258.783048 155.263034 
L 259.257319 173.647136 
L 259.494454 164.550085 
L 259.563439 170.243712 
L 259.682006 167.251529 
L 260.039865 188.548753 
L 260.158433 185.108986 
L 260.277 191.208754 
L 260.516291 185.787376 
L 260.634859 189.475162 
L 260.753427 202.893121 
L 260.871994 202.741376 
L 260.990562 200.640536 
L 261.109129 189.318317 
L 261.229853 191.717546 
L 261.34842 185.587812 
L 261.585556 199.394059 
L 261.704123 196.502615 
L 261.943414 184.756402 
L 262.061982 182.575864 
L 262.18055 186.083215 
L 262.299117 176.50415 
L 262.417685 183.68016 
L 262.538408 183.504187 
L 263.012679 155.986055 
L 263.131246 156.902263 
L 263.249814 155.943974 
L 263.370537 156.249377 
L 263.607673 133.288697 
L 263.72624 129.567118 
L 263.844808 130.562387 
L 263.963376 128.810943 
L 264.084099 129.31591 
L 264.202667 131.900038 
L 264.439802 121.362685 
L 264.558369 117.4052 
L 264.676937 106.031336 
L 264.916228 107.21278 
L 265.034796 116.130032 
L 265.153363 101.346368 
L 265.271931 103.003449 
L 265.390499 97.24734 
L 265.748357 122.582383 
L 265.985492 100.745764 
L 266.224784 104.256302 
L 266.699054 136.035409 
L 266.817622 128.396513 
L 266.938345 135.364033 
L 267.056913 132.296616 
L 267.412616 160.667198 
L 267.531183 155.518706 
L 267.770474 135.258832 
L 268.007609 137.770913 
L 268.244745 157.184713 
L 268.365468 155.07941 
L 268.484036 159.144647 
L 268.721171 148.648736 
L 269.07903 166.312368 
L 269.197597 164.856763 
L 269.434732 151.346355 
L 269.790435 166.74975 
L 269.911159 179.244487 
L 270.148294 164.531595 
L 270.385429 152.573067 
L 270.503997 153.577262 
L 270.62472 151.42159 
L 270.743288 153.948336 
L 270.980423 142.659908 
L 271.098991 140.169505 
L 271.217558 125.830875 
L 271.456849 146.304339 
L 271.575417 148.810045 
L 271.693985 144.489775 
L 271.812552 134.207455 
L 272.288979 147.284306 
L 272.407546 149.407461 
L 272.526114 146.326017 
L 272.763249 123.127518 
L 272.883972 118.926476 
L 273.121108 123.097551 
L 273.239675 123.65735 
L 273.358243 135.652859 
L 273.597534 108.954022 
L 273.716102 107.728585 
L 273.953237 123.721746 
L 274.071804 118.889496 
L 274.190372 122.531377 
L 274.30894 108.843083 
L 274.429663 117.285972 
L 274.666798 108.460532 
L 274.903934 127.231009 
L 275.141069 123.116041 
L 275.38036 110.770499 
L 275.617495 124.996915 
L 275.85463 111.754292 
L 276.093921 94.670224 
L 276.212489 91.046834 
L 276.331057 98.433884 
L 276.568192 86.539751 
L 276.68676 83.041327 
L 276.807483 87.922671 
L 276.926051 86.984785 
L 277.044618 80.702668 
L 277.163186 80.392165 
L 277.400321 97.527877 
L 277.75818 69.63612 
L 277.876747 71.385651 
L 277.995315 68.2532 
L 278.113883 80.506293 
L 278.23245 72.986625 
L 278.353174 73.535585 
L 278.590309 55.706819 
L 278.708877 57.856753 
L 278.827444 56.575209 
L 279.183147 64.314205 
L 279.541006 41.189028 
L 279.659573 44.114902 
L 279.778141 55.351047 
L 280.017432 51.841784 
L 280.254567 41.704834 
L 280.373135 41.764129 
L 280.61027 52.369066 
L 280.728838 48.692119 
L 280.849561 50.363864 
L 280.968129 48.665978 
L 281.323832 25.193955 
L 281.560967 50.46524 
L 281.800258 37.71802 
L 281.918825 29.66342 
L 282.037393 31.912179 
L 282.511664 67.194173 
L 282.632387 61.022996 
L 282.869522 73.056759 
L 282.98809 67.908267 
L 283.106658 69.868839 
L 283.343793 88.597873 
L 283.464516 88.149651 
L 283.701651 74.314713 
L 284.057354 106.504424 
L 284.175922 92.394687 
L 284.296645 103.382812 
L 284.415213 95.329486 
L 284.533781 96.048044 
L 284.652348 99.644018 
L 284.889483 117.878925 
L 285.128774 101.581637 
L 285.36591 110.783889 
L 285.603045 119.992517 
L 285.721613 124.841982 
L 285.958748 142.670747 
L 286.198039 125.922687 
L 286.553742 147.216085 
L 286.672309 144.239842 
L 286.790877 144.419003 
L 286.9116 143.764842 
L 287.030168 140.28172 
L 287.385871 148.380951 
L 287.504439 158.264143 
L 287.862297 145.796185 
L 288.336568 161.770856 
L 288.694426 134.953429 
L 289.168697 159.326358 
L 289.287264 154.943605 
L 289.405832 155.572263 
L 289.645123 139.839874 
L 289.763691 141.278901 
L 290.000826 153.538369 
L 290.119394 157.097364 
L 290.477252 144.119976 
L 290.832955 163.77032 
L 290.951523 157.300753 
L 291.07009 160.986627 
L 291.427949 149.371119 
L 291.546517 158.596324 
L 291.665084 158.409512 
L 291.90222 160.968775 
L 292.020787 159.673841 
L 292.257922 143.656452 
L 292.497213 159.958204 
L 292.615781 164.190488 
L 292.734349 161.658003 
L 292.852916 153.006624 
L 292.971484 162.282198 
L 293.090052 161.6325 
L 293.208619 165.104146 
L 293.329343 165.078005 
L 293.44791 161.76193 
L 293.685045 166.224381 
L 293.803613 159.801996 
L 293.922181 163.501897 
L 294.040748 159.233908 
L 294.159316 171.098074 
L 294.398607 168.328409 
L 294.517175 154.167665 
L 294.635742 162.396963 
L 294.75431 160.477198 
L 294.991445 178.368446 
L 295.230736 172.175592 
L 295.467871 156.326525 
L 295.705007 164.089112 
L 296.06071 174.354854 
L 296.181433 170.977571 
L 296.418568 149.644643 
L 296.537136 154.136423 
L 296.655703 153.133503 
L 296.774271 166.89512 
L 296.892839 163.401796 
L 297.250697 130.592991 
L 297.369265 131.859233 
L 297.487833 131.166816 
L 297.724968 137.013463 
L 297.843535 143.544238 
L 297.962103 141.960479 
L 298.080671 128.184835 
L 298.201394 128.886178 
L 298.319962 116.798858 
L 298.557097 125.465539 
L 298.675665 121.712081 
L 299.031367 89.710457 
L 299.389226 109.015868 
L 299.626361 96.706031 
L 299.744929 97.617138 
L 299.863497 85.056093 
L 299.982064 84.866093 
L 300.219199 86.506597 
L 300.45849 99.330327 
L 300.577058 99.286334 
L 300.814193 85.898979 
L 301.051329 117.206911 
L 301.409187 109.802009 
L 301.883458 133.402187 
L 302.002025 145.432762 
L 302.239161 143.724674 
L 302.357728 146.856487 
L 302.478452 140.848532 
L 302.597019 154.708336 
L 302.715587 155.367598 
L 302.834155 176.20066 
L 303.07129 164.526494 
L 303.189857 163.019246 
L 303.426993 165.805488 
L 303.666284 185.239053 
L 303.784851 181.092206 
L 303.903419 185.865798 
L 304.021987 185.072644 
L 304.140554 190.586471 
L 304.259122 187.195799 
L 304.61698 206.985773 
L 304.735548 206.673995 
L 305.091251 190.807713 
L 305.328386 209.186076 
L 305.446954 217.368194 
L 305.686245 205.764162 
L 305.804813 210.046815 
L 305.92338 199.438052 
L 306.160515 206.856981 
L 306.279083 213.810474 
L 306.397651 212.712554 
L 306.516218 213.922051 
L 306.634786 217.306986 
L 306.753354 203.771712 
L 307.22978 226.07313 
L 307.348347 223.145344 
L 307.585483 212.097286 
L 307.70405 215.361079 
L 307.822618 226.046352 
L 307.943341 224.319136 
L 308.061909 226.65652 
L 308.299044 224.913365 
L 308.417612 216.848563 
L 308.891882 233.09867 
L 309.129018 231.223535 
L 309.368309 217.251516 
L 309.486876 211.841614 
L 309.605444 224.710613 
L 309.724011 223.883666 
L 309.842579 224.871922 
L 310.079714 215.494972 
L 310.198282 215.576582 
L 310.437573 213.580944 
L 310.674708 222.470142 
L 310.793276 223.314941 
L 311.030411 211.456514 
L 311.267546 201.849396 
L 311.504682 212.820944 
L 311.625405 210.84252 
L 311.86254 198.978992 
L 312.336811 216.649636 
L 312.573946 202.287416 
L 312.692514 202.665503 
L 312.813237 200.445435 
L 312.931805 189.967377 
L 313.050372 190.809626 
L 313.16894 194.626205 
L 313.287508 208.446479 
L 313.64321 186.947779 
L 313.761778 187.019188 
L 313.880346 186.781369 
L 314.119637 203.827819 
L 314.238204 205.301914 
L 314.47534 195.360702 
L 314.712475 190.65278 
L 314.94961 196.391675 
L 315.068178 195.810836 
L 315.186745 201.40755 
L 315.426036 193.099828 
L 315.544604 192.374257 
L 315.663172 195.717111 
L 315.781739 209.620909 
L 315.900307 209.321244 
L 316.018874 203.817618 
L 316.137442 207.22168 
L 316.374577 198.734159 
L 316.493145 202.625335 
L 316.611713 213.074065 
L 316.732436 213.873595 
L 316.969571 223.523431 
L 317.206706 218.102691 
L 317.680977 251.818141 
L 317.799545 250.155959 
L 317.918112 251.306798 
L 318.03668 250.781429 
L 318.157403 245.022769 
L 318.394539 264.346669 
L 318.631674 271.632981 
L 318.750241 271.038115 
L 318.868809 277.04352 
L 318.987377 275.997882 
L 319.224512 282.546509 
L 319.343079 281.993723 
L 319.463803 285.408624 
L 319.582371 285.595436 
L 319.700938 281.09728 
L 319.819506 282.546509 
L 319.938073 277.361675 
L 320.293776 284.554261 
L 320.530912 278.279158 
L 320.768047 265.400596 
L 320.88877 271.105061 
L 321.007338 265.325999 
L 321.125905 266.041368 
L 321.244473 264.252944 
L 321.363041 255.900592 
L 321.481608 257.324955 
L 321.600176 255.649384 
L 321.718744 241.452298 
L 321.837311 244.455319 
L 321.955879 250.31663 
L 322.074446 250.525758 
L 322.193014 247.177166 
L 322.550873 228.839608 
L 322.906576 243.632835 
L 323.025143 242.744043 
L 323.262278 230.361521 
L 323.380846 232.477663 
L 323.736549 243.677466 
L 323.855117 235.10706 
L 323.97584 234.632697 
L 324.094408 245.958105 
L 324.331543 230.191286 
L 324.568678 244.308037 
L 324.805813 259.896969 
L 325.042949 258.671533 
L 325.161516 261.575729 
L 325.75651 291.933023 
L 325.875078 291.618694 
L 325.993645 288.691545 
L 326.112213 289.969901 
L 326.467916 310.678634 
L 326.823619 304.439873 
L 326.942186 300.446046 
L 327.060754 303.035276 
L 327.181477 303.155779 
L 327.300045 301.238563 
L 327.418613 303.215712 
L 327.53718 302.108866 
L 327.655748 292.718526 
L 327.774316 293.688292 
L 327.892883 291.789566 
L 328.130018 297.599233 
L 328.248586 297.335911 
L 328.485721 303.264168 
L 328.722857 291.728996 
L 328.84358 292.568057 
L 329.080715 310.222124 
L 329.199283 309.032392 
L 329.31785 314.750884 
L 329.436418 305.166719 
L 329.554986 306.371753 
L 329.792121 304.636887 
L 330.029256 313.385179 
L 330.147824 312.226051 
L 330.266391 313.382629 
L 330.384959 313.220045 
L 330.505682 310.086956 
L 330.62425 312.71189 
L 330.742818 310.815715 
L 330.861385 311.243534 
L 331.098521 323.290049 
L 331.335656 305.170545 
L 331.691359 317.252765 
L 331.928494 317.957295 
L 332.284197 307.764875 
L 332.40492 317.685047 
L 332.523488 312.241991 
L 332.760623 317.625751 
L 333.116326 305.885277 
L 333.234894 304.743364 
L 333.353461 306.434874 
L 333.472029 302.585779 
L 333.590596 314.574911 
L 334.183435 306.151787 
L 334.302002 310.791487 
L 334.422726 308.820077 
L 334.541293 317.472094 
L 334.778429 312.680649 
L 335.015564 310.426789 
L 335.134131 310.810614 
L 335.371267 322.808673 
L 335.489834 318.608268 
L 335.608402 318.63696 
L 335.845537 314.852898 
L 336.082672 318.098839 
L 336.20124 329.598307 
L 336.440531 324.460016 
L 336.559099 325.130754 
L 336.677666 319.132363 
L 336.914802 323.353807 
L 337.151937 324.746929 
L 337.389072 330.189985 
L 337.744775 326.8975 
L 337.863343 330.391461 
L 337.98191 330.489649 
L 338.219045 336.780692 
L 338.337613 335.462806 
L 338.576904 328.256192 
L 338.695472 329.911998 
L 338.932607 339.053679 
L 339.169742 331.627737 
L 339.28831 331.177602 
L 339.406877 331.746328 
L 339.644013 326.576795 
L 339.881148 335.94992 
L 339.999716 339.086196 
L 340.236851 329.800421 
L 340.355418 326.713238 
L 340.711121 333.51116 
L 340.829689 337.353243 
L 341.06898 328.159279 
L 341.187548 334.03908 
L 341.306115 326.608037 
L 341.424683 329.956629 
L 341.54325 328.849145 
L 341.661818 334.420993 
L 341.780386 334.460523 
L 341.898953 337.059316 
L 342.136089 330.661159 
L 342.254656 333.704986 
L 342.491791 341.547909 
L 342.610359 343.481064 
L 342.728927 350.234993 
L 342.966062 341.834822 
L 343.08463 338.968243 
L 343.442488 348.966838 
L 343.561056 347.31932 
L 343.679623 348.561334 
L 343.798191 345.411031 
L 343.916759 351.132074 
L 344.153894 347.309757 
L 344.628164 359.786641 
L 344.8653 356.604458 
L 344.983867 352.9409 
L 345.102435 361.663051 
L 345.221003 360.86097 
L 345.33957 361.835836 
L 345.458138 363.765166 
L 345.695273 359.701205 
L 346.169544 372.192116 
L 346.290267 370.172887 
L 346.408835 376.98101 
L 346.64597 368.487114 
L 346.764537 366.472348 
L 347.12024 376.586983 
L 347.238808 376.405272 
L 347.475943 369.32235 
L 347.594511 369.738692 
L 347.713079 373.186747 
L 347.831646 372.90876 
L 348.068781 378.793025 
L 348.305917 375.772151 
L 348.424484 377.914434 
L 348.780187 372.601445 
L 348.898755 375.875439 
L 349.13589 373.822418 
L 349.256613 373.214163 
L 349.493749 366.717818 
L 349.612316 367.160302 
L 349.730884 375.681614 
L 349.849452 372.587418 
L 349.968019 373.279834 
L 350.086587 369.109396 
L 350.205154 370.771578 
L 350.323722 365.168489 
L 350.44229 366.324429 
L 350.560857 364.221039 
L 350.679425 364.94916 
L 350.797993 364.208925 
L 351.035128 361.937212 
L 351.153695 362.03285 
L 351.390831 351.677208 
L 351.746534 362.593924 
L 351.865101 362.016273 
L 352.102236 353.287746 
L 352.220804 353.312611 
L 352.457939 357.185298 
L 352.576507 357.428855 
L 352.695075 356.002579 
L 352.813642 357.566573 
L 353.052933 351.531201 
L 353.171501 348.651234 
L 353.290068 349.6261 
L 353.645771 360.304359 
L 353.882907 352.9409 
L 354.357177 363.373052 
L 354.475745 368.344295 
L 354.594312 363.565602 
L 354.831448 367.619362 
L 354.950015 366.020939 
L 355.068583 368.520906 
L 355.18715 365.636476 
L 355.424286 370.811109 
L 355.661421 376.329399 
L 355.779989 376.243325 
L 355.898556 375.634433 
L 356.135691 383.087791 
L 356.372827 388.959941 
L 356.491394 387.726216 
L 356.609962 387.354504 
L 356.847097 390.230647 
L 356.965665 396.288334 
L 357.084232 393.972628 
L 357.439935 398.648861 
L 357.795638 392.527862 
L 357.914206 398.807237 
L 358.034929 395.506018 
L 358.153497 399.616587 
L 358.272064 398.517965 
L 358.627767 391.229741 
L 358.746335 392.295144 
L 358.864903 392.212896 
L 359.102038 394.459742 
L 359.220605 391.265446 
L 359.339173 393.016889 
L 359.576308 386.541585 
L 359.694876 385.198195 
L 359.813444 385.396484 
L 359.932011 389.929069 
L 360.169146 387.451417 
L 360.406282 379.075474 
L 360.643417 383.817188 
L 360.761985 384.396114 
L 360.880552 383.349201 
L 360.99912 384.340644 
L 361.236255 381.156549 
L 361.354823 381.553126 
L 361.47339 381.477891 
L 361.591958 380.55977 
L 361.710526 381.906986 
L 361.829093 381.742489 
L 361.947661 382.90863 
L 362.303364 376.151513 
L 362.421931 377.05242 
L 362.540499 378.74138 
L 362.659067 383.574268 
L 362.896202 382.512053 
L 363.133337 375.947486 
L 363.607608 381.873194 
L 363.844743 386.926048 
L 363.96331 386.697793 
L 364.081878 385.522725 
L 364.200446 388.520008 
L 364.319013 387.992726 
L 364.437581 390.56219 
L 364.556149 397.509499 
L 364.674716 397.024743 
L 364.793284 397.295143 
L 365.030419 396.223938 
L 365.148987 397.559549 
L 365.267554 397.128032 
L 365.386122 407.251848 
L 365.50469 407.831285 
L 365.623257 405.235361 
L 365.860392 408.174496 
L 365.97896 409.23856 
L 366.097528 408.555516 
L 366.216095 410.020685 
L 366.334663 413.097475 
L 366.571798 410.490202 
L 366.690366 411.085705 
L 366.808933 411.096863 
L 366.927501 411.310518 
L 367.046069 407.814197 
L 367.164636 409.974077 
L 367.283204 408.008852 
L 367.401772 411.897159 
L 367.757474 408.362265 
L 367.876042 409.017064 
L 367.99461 405.064552 
L 368.113177 409.373983 
L 368.231745 407.510644 
L 368.350313 410.139339 
L 368.46888 410.282796 
L 368.587448 409.502711 
L 368.706015 404.87283 
L 368.824583 407.590405 
L 368.943151 404.384313 
L 369.061718 409.405607 
L 369.180286 408.487231 
L 369.417421 412.459636 
L 369.535989 410.78738 
L 369.654556 410.893729 
L 369.773124 407.737942 
L 370.128827 413.096263 
L 370.247395 412.625599 
L 370.365962 407.400533 
L 370.48453 410.656292 
L 370.721665 409.233205 
L 370.840233 412.834344 
L 370.9588 409.503158 
L 371.077368 412.529961 
L 371.195936 410.129648 
L 371.314503 412.443823 
L 371.551638 407.607939 
L 371.670206 406.875418 
L 371.788774 404.812451 
L 372.025909 408.489271 
L 372.144477 406.077036 
L 372.263044 411.286799 
L 372.500179 404.884498 
L 372.618747 404.051813 
L 372.855882 406.707861 
L 372.97445 403.900578 
L 373.093018 409.673903 
L 373.211585 408.383369 
L 373.330153 404.890491 
L 373.44872 406.71022 
L 373.567288 403.433038 
L 373.685856 406.600237 
L 373.804423 406.627271 
L 374.041559 412.372095 
L 374.160126 408.984674 
L 374.278694 409.695517 
L 374.515829 405.690596 
L 374.871532 410.62945 
L 374.9901 411.815484 
L 375.108667 409.756342 
L 375.227235 410.774501 
L 375.345802 407.93113 
L 375.938641 411.771491 
L 376.057208 413.345559 
L 376.294343 409.348862 
L 376.412911 410.237081 
L 376.531479 412.524223 
L 376.650046 407.696053 
L 377.005749 413.125847 
L 377.124317 408.771657 
L 377.361452 410.212534 
L 377.598587 412.981562 
L 377.717155 418.193302 
L 377.95429 413.091609 
L 378.191425 415.811288 
L 378.428561 409.668675 
L 378.547128 412.386313 
L 378.665696 411.119115 
L 378.784264 414.395596 
L 379.021399 409.959222 
L 379.139966 410.585839 
L 379.258534 412.613293 
L 379.377102 412.253313 
L 379.495669 412.695159 
L 379.732805 415.383533 
L 379.851372 413.032122 
L 379.96994 413.178703 
L 380.088507 410.150369 
L 380.207075 413.222951 
L 380.325643 412.181266 
L 380.44421 415.511496 
L 380.562778 415.41012 
L 380.681346 416.005241 
L 380.797757 415.51309 
L 380.916325 414.193673 
L 381.034893 411.422159 
L 381.15346 412.121333 
L 381.390596 415.239247 
L 381.627731 415.291466 
L 381.864866 414.613777 
L 381.983434 414.607338 
L 382.339137 420.000407 
L 382.457704 417.214356 
L 382.576272 420.134746 
L 382.694839 417.575101 
L 382.813407 417.777534 
L 382.931975 417.448349 
L 383.050542 415.202395 
L 383.287678 419.415487 
L 383.524813 421.49975 
L 383.64338 418.085997 
L 383.761948 418.242077 
L 383.880516 419.461648 
L 383.999083 418.290534 
L 384.354786 424.545043 
L 384.591921 419.864155 
L 384.710489 421.314787 
L 384.829057 419.578263 
L 384.947624 419.48881 
L 385.066192 417.064077 
L 385.303327 421.784049 
L 385.421895 421.079136 
L 385.540462 421.193901 
L 385.65903 421.696317 
L 385.775442 420.254102 
L 385.89401 420.835961 
L 386.012577 420.419109 
L 386.249712 424.574499 
L 386.486848 420.959844 
L 386.605415 421.244971 
L 386.723983 419.20891 
L 386.961118 422.482522 
L 387.079686 420.345404 
L 387.198253 423.99264 
L 387.316821 422.244958 
L 387.435389 426.711873 
L 387.672524 423.148734 
L 388.028227 426.127718 
L 388.146794 429.123471 
L 388.265362 428.367041 
L 388.38393 426.289601 
L 388.502497 427.151296 
L 388.621065 426.368598 
L 388.739633 427.481947 
L 388.8582 427.001272 
L 389.095335 430.113321 
L 389.330315 429.205847 
L 389.448882 429.696723 
L 389.56745 429.65732 
L 389.686018 432.030536 
L 389.804585 430.011881 
L 390.041721 432.04061 
L 390.160288 431.783982 
L 390.278856 434.057799 
L 390.397424 431.290301 
L 390.515991 432.430939 
L 390.634559 431.846147 
L 390.753126 433.369399 
L 390.871694 432.990355 
L 390.990262 433.292634 
L 391.108829 435.958054 
L 391.345964 432.933929 
L 391.464532 431.635553 
L 391.5831 431.862851 
L 391.701667 435.017682 
L 391.820235 434.645524 
L 391.938803 432.026073 
L 392.05737 434.479114 
L 392.175938 432.446241 
L 392.294506 432.492275 
L 392.529485 432.340657 
L 392.648053 433.185456 
L 392.76662 431.214173 
L 392.885188 433.093006 
L 393.003755 433.101231 
L 393.122323 434.654386 
L 393.478026 430.286042 
L 393.596594 431.432546 
L 393.715161 430.429307 
L 393.833729 430.576844 
L 393.952296 432.374704 
L 394.070864 430.795408 
L 394.189432 431.088952 
L 394.307999 429.230075 
L 394.426567 432.331858 
L 394.663702 427.535313 
L 394.78227 431.91118 
L 394.900837 432.061905 
L 395.017249 433.175573 
L 395.135817 430.253908 
L 395.254385 430.403613 
L 395.372952 429.939643 
L 395.49152 430.963603 
L 395.610087 430.418851 
L 395.728655 432.040036 
L 395.847223 431.676996 
L 395.96579 431.739033 
L 396.202926 429.878562 
L 396.321493 431.397734 
L 396.440061 429.053273 
L 396.677196 430.153488 
L 396.795764 429.350387 
L 396.914331 431.153029 
L 397.151467 428.234615 
L 397.270034 431.625861 
L 397.388602 428.651021 
L 397.742149 431.840408 
L 398.334987 427.779061 
L 398.572122 431.094499 
L 398.69069 428.766743 
L 398.927825 431.763261 
L 399.16496 428.377434 
L 399.402096 430.621985 
L 399.520663 430.607321 
L 399.639231 432.62502 
L 399.755643 430.528069 
L 399.87421 430.898697 
L 399.992778 430.736687 
L 400.111346 432.954013 
L 400.348481 430.47024 
L 400.467049 432.677046 
L 400.585616 431.454032 
L 400.704184 432.670926 
L 400.822751 430.001233 
L 400.941319 431.60361 
L 401.059887 429.720122 
L 401.178454 431.543996 
L 401.297022 430.427012 
L 401.41559 430.734519 
L 401.534157 433.210896 
L 401.652725 433.061573 
L 401.771292 433.190365 
L 401.887704 432.347352 
L 402.006272 432.606848 
L 402.12484 433.532111 
L 402.243407 431.651939 
L 402.480542 434.581319 
L 402.717678 436.438283 
L 402.836245 434.410319 
L 402.954813 434.635259 
L 403.07338 433.785295 
L 403.191948 434.410893 
L 403.547651 437.587082 
L 403.666219 437.325672 
L 403.78263 435.826585 
L 403.901198 436.137216 
L 404.019766 435.938417 
L 404.138333 437.10086 
L 404.256901 436.300373 
L 404.494036 438.609639 
L 404.612604 438.29225 
L 404.731171 436.416605 
L 404.849739 436.928968 
L 405.086874 436.024618 
L 405.205442 437.273837 
L 405.442577 436.439813 
L 405.558989 437.833636 
L 405.677557 437.801055 
L 405.796124 437.099968 
L 405.914692 438.363596 
L 406.03326 435.447987 
L 406.270395 439.970627 
L 406.50753 438.99321 
L 406.626098 439.185187 
L 407.218936 436.338565 
L 407.453915 440.969275 
L 407.691051 438.24628 
L 407.809618 439.821559 
L 407.928186 436.557384 
L 408.046753 437.18738 
L 408.165321 435.921967 
L 408.402456 438.082804 
L 408.521024 436.394098 
L 408.639592 436.833202 
L 408.758159 438.772096 
L 408.876727 436.411568 
L 408.995294 437.466387 
L 409.111706 435.74134 
L 409.467409 440.219093 
L 409.585977 438.681049 
L 409.704544 439.132012 
L 409.823112 437.199048 
L 409.94168 438.808757 
L 410.178815 438.452539 
L 410.297383 441.486547 
L 410.41595 440.672097 
L 410.534518 441.779517 
L 410.65093 440.910617 
L 410.769497 441.845889 
L 410.888065 440.84603 
L 411.006633 441.704409 
L 411.1252 443.969108 
L 411.362335 441.494325 
L 411.480903 443.26394 
L 411.599471 442.688138 
L 411.718038 444.225927 
L 411.836606 441.621587 
L 411.955174 442.397017 
L 412.073741 441.670745 
L 412.190153 443.20643 
L 412.308721 441.52308 
L 412.427288 443.2714 
L 412.664423 440.467368 
L 412.901559 439.928929 
L 413.020126 439.186398 
L 413.257262 440.331117 
L 413.375829 439.898898 
L 413.729376 436.695293 
L 413.847944 436.341434 
L 413.966512 437.079437 
L 414.085079 436.402004 
L 414.203647 438.276693 
L 414.322214 438.315968 
L 414.440782 437.668756 
L 414.55935 438.081337 
L 414.796485 434.683396 
L 415.03362 437.007263 
L 415.150032 435.732031 
L 415.2686 439.419626 
L 415.505735 436.436816 
L 415.624303 437.082434 
L 415.74287 438.808183 
L 415.861438 438.515022 
L 415.980005 438.699156 
L 416.098573 438.406059 
L 416.335708 442.290413 
L 416.45212 439.8806 
L 416.570688 441.440131 
L 416.689255 441.485973 
L 416.807823 442.340909 
L 416.926391 440.437211 
L 417.044958 443.707316 
L 417.163526 441.24012 
L 417.400661 443.583051 
L 417.519229 443.167729 
L 417.637796 442.159517 
L 417.756364 442.288245 
L 417.872776 444.568246 
L 417.991343 443.4994 
L 418.228479 445.615542 
L 418.347046 445.144877 
L 418.465614 443.965984 
L 418.584182 444.829528 
L 418.702749 444.5108 
L 418.821317 443.818957 
L 419.058452 443.971276 
L 419.174864 446.327659 
L 419.293432 443.823675 
L 419.530567 445.294008 
L 419.649134 445.226169 
L 419.767702 444.084511 
L 419.88627 445.145068 
L 420.004837 444.578256 
L 420.241973 445.426434 
L 420.358384 444.760031 
L 420.476952 442.577389 
L 420.59552 443.88246 
L 420.714087 441.880574 
L 420.832655 443.455279 
L 421.06979 442.454909 
L 421.188358 443.614994 
L 421.306925 443.658732 
L 421.660473 439.941872 
L 421.77904 442.47544 
L 422.016175 439.345029 
L 422.134743 441.441151 
L 422.253311 441.519829 
L 422.371878 438.948388 
L 422.490446 440.413429 
L 422.609014 438.370418 
L 422.727581 438.944817 
L 422.843993 437.141283 
L 422.962561 440.217372 
L 423.081128 440.254033 
L 423.199696 439.569267 
L 423.318264 441.26811 
L 423.436831 440.530362 
L 423.555399 440.569254 
L 423.673966 440.136462 
L 423.792534 441.360432 
L 423.911102 439.599553 
L 424.027514 443.904648 
L 424.146081 442.232775 
L 424.620352 445.184917 
L 424.738919 443.300537 
L 424.976054 445.544578 
L 425.094622 445.827347 
L 425.329602 447.857734 
L 425.448169 447.55418 
L 425.566737 445.761421 
L 425.685304 447.205294 
L 425.803872 447.23169 
L 426.041007 448.152616 
L 426.275987 447.046344 
L 426.394554 447.300549 
L 426.63169 445.621089 
L 426.868825 445.098397 
L 426.987393 443.776876 
L 427.10596 444.454501 
L 427.343095 441.512815 
L 427.459507 444.521001 
L 427.578075 441.717097 
L 427.696643 443.207641 
L 427.81521 439.965717 
L 427.933778 442.57503 
L 428.052345 442.096906 
L 428.170913 443.266172 
L 428.289481 443.184943 
L 428.408048 444.894561 
L 428.643028 442.132802 
L 428.880163 445.524877 
L 428.998731 445.905961 
L 429.117298 446.828227 
L 429.235866 446.455878 
L 429.354434 446.564522 
L 429.473001 448.123479 
L 429.707981 446.601247 
L 430.182251 449.954684 
L 430.300819 450.248419 
L 430.537954 448.085543 
L 430.654366 447.487361 
L 430.772933 447.918432 
L 430.891501 447.130569 
L 431.010069 448.506794 
L 431.247204 446.229089 
L 431.484339 446.132304 
L 431.719319 444.583102 
L 431.956454 446.177508 
L 432.075022 444.835585 
L 432.193589 446.611639 
L 432.549292 443.092749 
L 432.784272 443.604474 
L 432.902839 443.486202 
L 433.139974 444.997468 
L 433.258542 445.558605 
L 433.37711 443.311759 
L 433.730657 443.685957 
L 433.849224 443.616715 
L 433.967792 442.619279 
L 434.08636 443.015473 
L 434.204927 443.819722 
L 434.323495 446.189814 
L 434.56063 442.053614 
L 434.79561 444.822068 
L 435.032745 445.379891 
L 435.151313 446.413797 
L 435.26988 446.019961 
L 435.388448 446.249364 
L 435.507015 445.708183 
L 435.623427 447.150334 
L 435.97913 446.582948 
L 436.097698 447.569163 
L 436.216265 446.994764 
L 436.453401 449.134815 
L 436.569812 446.328488 
L 436.68838 447.573244 
L 436.806948 446.909391 
L 437.044083 448.415365 
L 437.281218 447.450509 
L 437.399786 447.41474 
L 437.634765 448.210573 
L 437.871901 448.856318 
L 437.990468 447.166019 
L 438.227603 449.588711 
L 438.346171 447.590331 
L 438.462583 449.152412 
L 438.581151 446.95568 
L 438.818286 447.778163 
L 438.936853 448.215291 
L 439.055421 446.776009 
L 439.173989 448.502523 
L 439.408968 446.97672 
L 439.527536 448.959989 
L 439.646103 448.316667 
L 439.764671 448.634248 
L 439.883239 448.151533 
L 440.001806 448.303405 
L 440.120374 449.202016 
L 440.355353 448.312331 
L 440.473921 448.538227 
L 440.592489 448.513107 
L 440.711056 450.027305 
L 440.948191 448.438956 
L 441.064603 449.159171 
L 441.183171 448.978033 
L 441.301739 450.044839 
L 441.420306 449.661969 
L 441.538874 448.872194 
L 441.657441 449.266986 
L 441.776009 449.273744 
L 442.010989 448.065777 
L 442.129556 447.898475 
L 442.248124 450.558094 
L 442.366691 449.363771 
L 442.485259 450.343037 
L 442.603827 448.816979 
L 442.838806 449.649792 
L 442.957374 447.757187 
L 443.313077 451.184903 
L 443.431644 449.549117 
L 443.550212 450.077611 
L 443.666624 449.317738 
L 443.785191 449.976617 
L 443.903759 449.987647 
L 444.022327 448.49468 
L 444.140894 449.263224 
L 444.259462 449.022664 
L 444.378029 450.236624 
L 444.494441 448.347143 
L 444.613009 449.827869 
L 444.731577 448.623026 
L 444.850144 448.678241 
L 444.968712 448.53759 
L 445.205847 449.199721 
L 445.322259 450.633456 
L 445.440827 449.882127 
L 445.559394 450.116631 
L 445.677962 448.768778 
L 445.796529 448.914338 
L 445.915097 450.133272 
L 446.033665 450.06505 
L 446.150077 449.267879 
L 446.268644 449.639718 
L 446.505779 449.165546 
L 446.624347 449.211197 
L 446.742915 448.20764 
L 446.977894 449.434671 
L 447.096462 448.32808 
L 447.215029 449.769402 
L 447.333597 449.122892 
L 447.452165 450.175735 
L 447.570732 449.92408 
L 447.805712 447.020203 
L 447.924279 448.825395 
L 448.042847 448.63055 
L 448.279982 448.614482 
L 448.39855 449.039942 
L 448.514962 448.435002 
L 448.633529 448.756919 
L 448.752097 448.390499 
L 448.870665 448.525539 
L 448.989232 447.858116 
L 449.1078 448.350268 
L 449.226367 447.560492 
L 449.579915 450.180772 
L 449.698482 447.385858 
L 449.81705 448.961009 
L 449.935617 447.926529 
L 450.170597 449.187097 
L 450.289165 448.239455 
L 450.5263 449.316399 
L 450.644867 449.359627 
L 450.763435 450.680383 
L 450.879847 448.086499 
L 450.998415 448.981348 
L 451.116982 448.850644 
L 451.472685 450.865027 
L 451.589097 450.443839 
L 451.707664 449.109375 
L 451.826232 450.083158 
L 451.9448 448.173529 
L 452.181935 449.374865 
L 452.300503 449.736248 
L 452.416914 450.72801 
L 452.535482 449.828443 
L 452.772617 450.663933 
L 452.891185 450.905769 
L 453.126164 450.334111 
L 453.3633 450.990376 
L 453.481867 450.70901 
L 453.600435 451.101124 
L 453.719003 452.781031 
L 453.835414 450.857248 
L 453.953982 451.474302 
L 454.07255 449.913624 
L 454.191117 450.857822 
L 454.309685 450.257027 
L 454.544664 452.067128 
L 454.663232 450.632946 
L 454.7818 451.582755 
L 455.137503 449.947862 
L 455.25607 450.975329 
L 455.372482 450.680893 
L 455.49105 451.615782 
L 455.728185 450.755936 
L 455.846753 449.070738 
L 455.963164 449.991473 
L 456.081732 448.682895 
L 456.2003 448.80104 
L 456.318867 450.037251 
L 456.437435 449.006852 
L 456.556002 451.186369 
L 456.790982 449.635573 
L 456.90955 449.904889 
L 457.028117 449.839282 
L 457.146685 449.353825 
L 457.265252 447.833251 
L 457.500232 449.791845 
L 457.6188 449.689959 
L 457.737367 449.769402 
L 457.855935 449.560466 
L 458.209482 446.956764 
L 458.446617 449.351593 
L 458.565185 447.098052 
L 458.683752 448.596184 
L 458.800164 448.429455 
L 458.918732 448.949214 
L 459.0373 450.012194 
L 459.274435 448.87111 
L 459.509414 448.611039 
L 459.627982 449.417711 
L 459.746549 449.065509 
L 459.865117 450.184533 
L 459.983685 449.662543 
L 460.102252 450.375107 
L 460.218664 450.258302 
L 460.337232 449.927459 
L 460.455799 450.407879 
L 460.574367 449.992812 
L 460.692935 451.682219 
L 460.811502 450.416933 
L 460.927914 451.568856 
L 461.165049 450.039355 
L 461.283617 450.774171 
L 461.402185 450.612671 
L 461.518597 451.617886 
L 461.637164 451.199567 
L 461.755732 452.569863 
L 461.874299 451.4444 
L 461.992867 452.967333 
L 462.111435 450.689564 
L 462.227846 452.628521 
L 462.346414 450.634158 
L 462.583549 452.070444 
L 462.818529 452.44292 
L 462.937096 452.027279 
L 463.055664 451.052094 
L 463.174232 451.635547 
L 463.292799 451.610873 
L 463.411367 450.914057 
L 463.646346 452.500175 
L 463.883482 451.564265 
L 464.002049 452.659699 
L 464.237029 451.233041 
L 464.355596 451.363235 
L 464.474164 452.126997 
L 464.592732 451.587346 
L 464.711299 452.808447 
L 464.827711 452.197004 
L 464.946279 453.493276 
L 465.064846 451.606346 
L 465.183414 453.282937 
L 465.418393 451.675396 
L 465.536961 453.283256 
L 465.774096 452.371702 
L 465.892664 451.880252 
L 466.011232 452.752467 
L 466.246211 452.318464 
L 466.364779 452.929843 
L 466.483346 452.339249 
L 466.601914 452.417417 
L 466.718326 452.77083 
L 466.836893 452.272239 
L 467.074029 453.190105 
L 467.192596 453.204068 
L 467.546143 451.097554 
L 467.664711 451.24694 
L 467.783279 452.67194 
L 467.901846 452.553159 
L 468.018258 452.684055 
L 468.136826 452.107997 
L 468.255393 452.847786 
L 468.373961 451.901866 
L 468.492529 452.490356 
L 468.608941 452.302524 
L 468.846076 451.205816 
L 469.083211 452.922702 
L 469.31819 451.114641 
L 469.436758 451.920866 
L 469.555326 451.836641 
L 469.673893 450.518946 
L 469.908873 451.06899 
L 470.02744 450.330668 
L 470.264576 450.819631 
L 470.499555 448.962603 
L 470.618123 449.698886 
L 470.73669 448.994036 
L 470.973826 449.686006 
L 471.090238 449.122956 
L 471.208805 449.590114 
L 471.327373 449.601781 
L 471.44594 450.634349 
L 471.68092 448.548174 
L 471.799487 448.379788 
L 471.918055 448.650123 
L 472.153035 450.216349 
L 472.39017 448.500674 
L 472.627305 450.70002 
L 472.745873 450.728966 
L 472.862285 450.592779 
L 472.980852 452.05444 
L 473.09942 451.883249 
L 473.217987 451.327148 
L 473.336555 452.437182 
L 473.571535 451.188537 
L 473.690102 451.501655 
L 473.80867 452.323054 
L 473.927237 451.194339 
L 474.043649 452.554561 
L 474.162217 452.571457 
L 474.280785 453.532105 
L 474.399352 453.55238 
L 474.515764 453.438763 
L 474.634332 452.7554 
L 474.871467 453.023951 
L 474.990035 452.738504 
L 475.225014 452.97084 
L 475.343582 453.748565 
L 475.462149 453.039444 
L 475.580717 451.570323 
L 475.697129 452.626162 
L 475.815696 452.468679 
L 475.934264 451.053688 
L 476.052832 451.736923 
L 476.171399 453.569404 
L 476.287811 450.819567 
L 476.406379 452.345689 
L 476.643514 450.555289 
L 476.762082 450.669416 
L 476.878493 450.307141 
L 476.997061 449.234342 
L 477.115629 451.092836 
L 477.234196 451.052859 
L 477.587743 449.983503 
L 477.706311 450.918839 
L 477.824879 449.468016 
L 478.059858 450.186127 
L 478.178426 449.561741 
L 478.415561 450.722272 
L 478.531973 449.768573 
L 478.65054 449.726238 
L 478.769108 450.471191 
L 478.887676 450.036231 
L 479.006243 450.032533 
L 479.122655 448.812516 
L 479.35979 451.160994 
L 479.478358 450.958943 
L 479.59477 450.996497 
L 479.713338 450.689245 
L 479.950473 451.322366 
L 480.06904 452.042135 
L 480.185452 450.912846 
L 480.422587 452.401987 
L 480.541155 451.44797 
L 480.776135 452.468551 
L 481.01327 451.417557 
L 481.131837 452.039266 
L 481.248249 451.576762 
L 481.603952 453.591082 
L 481.72252 452.289135 
L 481.838932 452.616152 
L 481.957499 452.260571 
L 482.076067 452.657212 
L 482.194635 452.090336 
L 482.311046 452.182531 
L 482.429614 452.62291 
L 482.548182 452.610669 
L 482.666749 452.837394 
L 482.785317 452.581977 
L 482.901729 452.923659 
L 483.138864 451.960205 
L 483.257432 452.93182 
L 483.373843 452.127252 
L 483.492411 452.545189 
L 483.610979 452.432655 
L 483.729546 452.927994 
L 483.729546 452.927994 
" style="fill:none;stroke:#808080;stroke-linecap:square;stroke-width:2;"/>
   </g>
   <g id="line2d_19">
    <path clip-path="url(#pf90497640e)" d="M 52.473225 446.09249 
L 59.628242 444.362571 
L 71.670401 441.341727 
L 84.661101 437.982785 
L 100.982474 433.400556 
L 108.486727 431.096862 
L 119.44022 427.370198 
L 126.105876 424.824309 
L 135.151508 420.821772 
L 138.484336 419.128781 
L 147.286365 414.264797 
L 152.520587 410.899234 
L 155.732692 408.610347 
L 160.725467 404.606675 
L 165.60183 400.370746 
L 171.663869 394.245614 
L 177.486617 387.465954 
L 179.032308 385.429448 
L 183.548656 379.087139 
L 190.201378 369.150195 
L 195.903403 359.278526 
L 200.534008 350.580083 
L 209.795217 331.953508 
L 217.985006 312.968812 
L 223.919855 298.401118 
L 225.579802 294.063788 
L 227.241904 289.633366 
L 228.546148 285.422882 
L 230.563953 279.016255 
L 233.409576 270.991587 
L 234.71382 266.348547 
L 238.273005 253.228284 
L 239.577249 249.280152 
L 243.01571 238.88786 
L 246.572739 226.44793 
L 248.469821 218.842843 
L 250.722605 209.113807 
L 254.042499 195.22204 
L 255.463155 190.5824 
L 256.767399 186.878468 
L 258.783048 182.143717 
L 261.704123 175.593309 
L 264.439802 170.064038 
L 266.817622 165.72443 
L 268.958306 161.209112 
L 270.266862 157.822008 
L 271.575417 154.499333 
L 272.288979 152.922858 
L 273.476811 150.977716 
L 274.190372 150.099517 
L 274.903934 149.491952 
L 276.212489 148.800939 
L 277.163186 148.448266 
L 280.61027 147.698336 
L 281.323832 147.584218 
L 282.393096 147.358974 
L 283.225225 147.343473 
L 286.316607 146.680747 
L 286.9116 146.904406 
L 287.504439 147.388436 
L 288.218 148.403407 
L 291.783652 153.815695 
L 293.208619 155.651255 
L 294.75431 158.654886 
L 295.823574 161.467404 
L 297.129974 165.106491 
L 300.577058 173.663028 
L 303.189857 181.490264 
L 306.753354 193.813581 
L 308.536179 201.443187 
L 311.86254 217.463161 
L 313.287508 223.920814 
L 315.186745 231.91228 
L 318.03668 242.680527 
L 323.025143 260.519151 
L 326.705051 273.006497 
L 328.130018 279.263076 
L 329.673553 286.878233 
L 331.335656 294.786423 
L 332.523488 299.474267 
L 334.541293 306.197975 
L 341.661818 329.258905 
L 347.831646 350.081838 
L 349.13589 353.140532 
L 350.560857 356.355208 
L 351.865101 359.872199 
L 355.424286 370.090571 
L 358.864903 377.261338 
L 360.880552 381.289677 
L 364.081878 387.869663 
L 367.638907 394.42387 
L 370.48453 399.115961 
L 373.330153 403.643222 
L 374.9901 405.922775 
L 377.361452 408.656702 
L 380.797757 412.557302 
L 384.591921 417.864004 
L 385.775442 419.12273 
L 387.791092 420.720759 
L 388.976768 421.732318 
L 391.464532 424.268193 
L 394.189432 426.930048 
L 396.795764 428.669536 
L 399.16496 430.054613 
L 401.41559 431.495151 
L 404.375469 433.365321 
L 406.744665 434.776799 
L 408.639592 435.908386 
L 411.718038 437.702747 
L 415.624303 439.648485 
L 418.109911 440.720905 
L 420.59552 441.470175 
L 422.253311 441.924964 
L 425.094622 442.850329 
L 428.761595 444.065874 
L 432.430724 445.179206 
L 438.227603 446.637694 
L 441.064603 447.189934 
L 443.313077 447.52304 
L 446.742915 448.321303 
L 449.1078 448.569449 
L 451.472685 448.88232 
L 454.663232 449.472212 
L 457.146685 449.736539 
L 459.983685 450.088129 
L 462.583549 450.340683 
L 470.855258 451.176026 
L 476.524946 451.396485 
L 481.603952 451.693449 
L 483.729546 451.752389 
L 483.729546 451.752389 
" style="fill:none;stroke:#000000;stroke-linecap:square;stroke-width:2;"/>
   </g>
   <g id="patch_3">
    <path d="M 52.50125 460.908125 
L 52.50125 14.599219 
" style="fill:none;stroke:#000000;stroke-linecap:square;stroke-linejoin:miter;stroke-width:0.8;"/>
   </g>
   <g id="patch_4">
    <path d="M 483.65625 460.908125 
L 483.65625 14.599219 
" style="fill:none;stroke:#000000;stroke-linecap:square;stroke-linejoin:miter;stroke-width:0.8;"/>
   </g>
   <g id="patch_5">
    <path d="M 52.50125 460.908125 
L 483.65625 460.908125 
" style="fill:none;stroke:#000000;stroke-linecap:square;stroke-linejoin:miter;stroke-width:0.8;"/>
   </g>
   <g id="patch_6">
    <path d="M 52.50125 14.599219 
L 483.65625 14.599219 
" style="fill:none;stroke:#000000;stroke-linecap:square;stroke-linejoin:miter;stroke-width:0.8;"/>
   </g>
  </g>
 </g>
 <defs>
  <clipPath id="pf90497640e">
   <rect height="446.308906" width="431.155" x="52.50125" y="14.599219"/>
  </clipPath>
 </defs>
</svg>
