<?xml version="1.0" encoding="UTF-8" standalone="no"?>
<!-- Created with Inkscape (http://www.inkscape.org/) -->

<svg
   width="150mm"
   height="297mm"
   viewBox="0 0 150 297"
   version="1.1"
   id="svg276"
   inkscape:version="1.1.1 (1:1.1+202109281949+c3084ef5ed)"
   sodipodi:docname="sketch_spectrum.svg"
   xmlns:inkscape="http://www.inkscape.org/namespaces/inkscape"
   xmlns:sodipodi="http://sodipodi.sourceforge.net/DTD/sodipodi-0.dtd"
   xmlns="http://www.w3.org/2000/svg"
   xmlns:svg="http://www.w3.org/2000/svg">
  <sodipodi:namedview
     id="namedview278"
     pagecolor="#ffffff"
     bordercolor="#111111"
     borderopacity="1"
     inkscape:pageshadow="0"
     inkscape:pageopacity="0"
     inkscape:pagecheckerboard="1"
     inkscape:document-units="mm"
     showgrid="false"
     width="180mm"
     inkscape:zoom="1.5037598"
     inkscape:cx="283.95492"
     inkscape:cy="230.42244"
     inkscape:window-width="1848"
     inkscape:window-height="1016"
     inkscape:window-x="72"
     inkscape:window-y="27"
     inkscape:window-maximized="1"
     inkscape:current-layer="layer1" />
  <defs
     id="defs273" />
  <g
     inkscape:label="Layer 1"
     inkscape:groupmode="layer"
     id="layer1">
    <rect
       style="fill:none;fill-rule:evenodd;stroke-width:0.865;stroke:#000000;stroke-opacity:1;stroke-miterlimit:4;stroke-dasharray:none"
       id="rect326"
       width="127.0995"
       height="71.616188"
       x="13.197013"
       y="13.088281" />
    <path
       style="fill:none;stroke:#000000;stroke-width:0.264583px;stroke-linecap:butt;stroke-linejoin:miter;stroke-opacity:1"
       d="m 8.5440709,17.52748 c 0,-0.457785 -0.052458,0.187242 0.3518956,-0.351896 0.1112789,-0.148372 0.084769,-0.366339 0.1759479,-0.527843 0.2411309,-0.427115 1.9863006,-2.459934 1.9878006,-2.461134 0.630113,-0.494523 1.424865,-0.732218 2.137298,-1.098326 0.368528,0.460993 2.687729,3.728825 3.227007,3.728825"
       id="path1253" />
    <path
       style="fill:none;stroke:#000000;stroke-width:0.264583px;stroke-linecap:butt;stroke-linejoin:miter;stroke-opacity:1"
       d="m 13.112481,24.770493 c 1.45478,0.284957 2.944292,0.173752 4.417791,0.173752"
       id="path1255" />
    <path
       style="fill:none;stroke:#000000;stroke-width:0.264583px;stroke-linecap:butt;stroke-linejoin:miter;stroke-opacity:1"
       d="m 11.958489,31.622806 c 2.552817,0.704803 5.21813,1.97407 7.908929,1.97407"
       id="path1257" />
    <path
       style="fill:none;stroke:#000000;stroke-width:0.264583px;stroke-linecap:butt;stroke-linejoin:miter;stroke-opacity:1"
       d="m 10.106994,47.274487 c 15.356692,0.99659 -6.5190057,-0.348903 12.770637,0.527844 0.117675,0.0053 -0.07475,0.232786 -0.158041,0.316082"
       id="path1259" />
    <path
       style="fill:none;stroke:#000000;stroke-width:0.264583px;stroke-linecap:butt;stroke-linejoin:miter;stroke-opacity:1"
       d="m 11.94971,65.260195 c 2.254959,0.597684 4.576196,-0.07707 6.842819,0.185473 4.783825,0.554109 0.888309,0.537229 1.96359,0.537229"
       id="path1261" />
    <path
       style="fill:none;stroke:#000000;stroke-width:0.264583px;stroke-linecap:butt;stroke-linejoin:miter;stroke-opacity:1"
       d="m 24.617054,83.31896 c 1.405783,0.279845 1.085885,4.956733 2.251407,6.122255"
       id="path1263" />
    <path
       style="fill:none;stroke:#000000;stroke-width:0.264583px;stroke-linecap:butt;stroke-linejoin:miter;stroke-opacity:1"
       d="m 51.374082,83.472561 c 1.636403,4.78771 0.03956,-0.512558 0.93499,4.859989 0.0964,0.578363 0.351895,0.389376 0.351895,0.868378"
       id="path1265" />
    <path
       style="fill:none;stroke:#000000;stroke-width:0.264583px;stroke-linecap:butt;stroke-linejoin:miter;stroke-opacity:1"
       d="m 92.725652,82.810071 c 0.877988,4.783601 0.867402,3.124295 0.867402,4.901861"
       id="path1267" />
    <path
       style="fill:none;stroke:#000000;stroke-width:0.264583px;stroke-linecap:butt;stroke-linejoin:miter;stroke-opacity:1"
       d="m 124.64609,83.68122 c -0.17595,1.578128 -0.3519,3.156257 -0.52784,4.734388"
       id="path1269" />
    <path
       style="fill:none;stroke:#000000;stroke-width:0.264583px;stroke-linecap:butt;stroke-linejoin:miter;stroke-opacity:1"
       d="m 137.31013,82.3308 c 0.65295,0.387572 1.35154,0.706942 1.95886,1.162711 0.46437,0.348499 0.80202,0.841084 1.23163,1.231635 0.36987,0.336249 0.66681,0.516594 1.01851,0.703792 0.11524,0.06134 -0.2074,0.158869 -0.31573,0.231727 -0.69067,0.464529 -2.63922,1.490745 -2.63922,2.463271"
       id="path1271" />
    <path
       style="fill:none;stroke:#000000;stroke-width:0.264583px;stroke-linecap:butt;stroke-linejoin:miter;stroke-opacity:1"
       d="m 63.312375,97.775121 c 1.376818,-1.350467 3.679108,-1.445392 4.963128,-2.863908"
       id="path1273" />
    <path
       style="fill:none;stroke:#000000;stroke-width:0.264583px;stroke-linecap:butt;stroke-linejoin:miter;stroke-opacity:1"
       d="m 65.773476,90.657771 c 0.932135,2.468388 3.83929,5.104705 4.639273,7.504653"
       id="path1275" />
    <path
       style="fill:none;stroke:#000000;stroke-width:0.264583px;stroke-linecap:butt;stroke-linejoin:miter;stroke-opacity:1"
       d="m 18.732912,79.944454 c 2.134419,-1.522357 3.283059,-4.190336 5.448563,-5.634006 1.52907,-1.019379 3.404843,-1.398077 4.926541,-2.463268 0.829043,-0.580332 2.754135,-2.329355 3.176958,-3.175 0.108143,-0.216286 0.08069,-0.481526 0.175948,-0.703789 0.229616,-0.535776 0.70899,-0.798266 1.055685,-1.231635 0.370665,-0.463333 1.104606,-2.017604 1.407583,-2.287323 0.975085,-0.868045 4.121531,-3.004376 5.313823,-3.534273 0.340317,-0.151249 0.744172,-0.08371 1.100801,-0.190992 0.796216,-0.239532 0.506908,-0.407056 1.231636,-0.527844 1.319368,-0.219895 2.735664,-0.113506 4.046799,-0.351895 1.00743,-0.183169 2.003928,-0.669888 3.006138,-0.883486 1.83117,-0.390277 3.700679,-0.487686 5.546825,-0.767657 1.406033,-0.213228 2.594234,-0.768215 3.903467,-1.242515 0.417142,-0.15112 0.872461,-0.190146 1.279533,-0.366607 1.833105,-0.794639 3.661653,-2.207789 5.265999,-3.376247 0.13529,-0.09853 1.358106,-1.118058 1.617713,-1.262253 1.517697,-0.842989 2.691476,-1.463159 3.878498,-2.819755 1.407583,-1.876779 -0.410544,0.410544 1.231635,-1.231635 0.822116,-0.822116 1.158063,-2.028849 1.759479,-2.991115 0.566177,-0.905883 1.34175,-1.837319 1.764194,-2.823022 0.146918,-0.34281 0.156242,-0.889241 0.351896,-1.231635 0.145489,-0.254609 0.396701,-0.441503 0.527844,-0.703792 0.05246,-0.104913 0,-0.234595 0,-0.351896 0.117298,-0.234595 0.194522,-0.493961 0.351896,-0.703789 0.182118,-0.242826 1.742792,-1.766739 2.109205,-1.583531 0.802471,0.401235 1.396812,1.227275 2.115045,1.761202 0.863616,0.642 1.695585,1.326136 2.564551,1.960872 1.004101,0.733446 1.931445,1.148561 2.519177,2.324028 0.34236,0.684723 0.46614,1.398418 0.703791,2.111375 0.08294,0.248828 0.288283,0.449334 0.351896,0.703792 0.161526,0.646102 0.06129,1.282544 0.351896,1.935427 0.466048,1.047038 1.185606,1.800762 1.818693,2.735813 0.429302,0.634066 0.736764,1.346245 1.177242,1.972595 0.440825,0.626846 0.857541,0.760712 1.411365,1.235417 0.440822,0.377846 0.797515,0.8461 1.231632,1.231632 1.473274,1.308391 3.266178,2.184903 5.094092,2.89324 1.315432,0.509744 4.090779,1.244198 5.102489,2.111375 0.37785,0.323869 0.65756,0.757092 1.05569,1.055685 0.56076,0.420579 1.48127,0.762339 1.97027,1.254866 0.31214,0.314391 0.44787,0.769498 0.73241,1.10907 0.36793,0.439086 0.84472,0.778311 1.21523,1.215226 1.21014,1.427017 2.06408,3.157262 3.26271,4.595616 0.26549,0.318593 0.62067,0.555903 0.87974,0.87974 0.70763,0.884539 1.00204,2.078154 1.94686,2.830417 1.01947,0.811689 2.81114,1.207701 4.08988,1.079828 0.99599,-0.0996 2.12963,-0.61015 3.16265,-0.351896 0.56398,0.140994 0.97327,0.748684 1.42019,1.068306 0.43822,0.313404 0.93661,0.532744 1.40427,0.800237 1.43658,0.821688 3.032,1.435529 4.45089,2.246321 0.2839,0.162229 2.48209,1.424744 2.64583,1.588481 0.0927,0.09273 0.0832,0.259165 0.17595,0.351896 0.36022,0.360223 1.03721,0.509371 1.40759,0.87974 0.51221,0.512215 0.82477,1.322371 1.40758,1.759479 0.21806,0.163542 1.47562,1.112004 1.70737,0.87974 0.35582,-0.356603 -0.63154,-0.652074 -0.87763,-0.652074 0.53307,-0.24738 1.06614,-0.49476 1.59921,-0.74214"
       id="path1277" />
    <path
       style="fill:none;stroke:#000000;stroke-width:0.264583px;stroke-linecap:butt;stroke-linejoin:miter;stroke-opacity:1"
       d="m 16.885797,83.076679 c 6.25257,0.502835 12.498153,0 18.719698,0 1.849183,0 -0.455187,-0.0569 1.407583,0.175947 1.574157,0.196768 3.386111,0.01662 4.926539,-0.175947 1.456063,-0.18201 2.953885,0.03045 4.398698,-0.175948 0.549865,-0.07855 1.219459,0.135003 1.759479,0 0.358494,-0.08962 0.84836,-0.550482 1.231635,-0.703792 1.671998,-0.668801 3.473466,-1.197517 4.926539,-2.287323 0.620141,-0.465106 0.803257,-1.364255 1.231636,-1.935427 0.07869,-0.104915 0.259162,-0.08321 0.351896,-0.175948 0.430995,-0.430996 0.619543,-1.147387 1.055687,-1.583531 0.09273,-0.09273 0.273209,-0.07103 0.351896,-0.175948 0.1895,-0.252667 0.162393,-0.62707 0.351896,-0.87974 0.988158,-1.317543 1.649685,-2.90337 2.639216,-4.222747 0.853321,-1.137761 2.461556,-1.844577 3.564138,-2.670897 1.213292,-0.909294 1.897457,-2.369444 3.027098,-3.380608 0.799976,-0.716071 1.893049,-1.268341 2.529232,-2.157886 0.215775,-0.30171 0.161051,-0.737616 0.351893,-1.055685 0.08535,-0.142248 0.26634,-0.209777 0.351896,-0.351896 0.405352,-0.673322 0.606097,-1.556874 0.877538,-2.280718 0.184192,-0.491176 0.519602,-0.916409 0.703791,-1.407584 0.446427,-1.190469 -0.07347,-0.239117 0.351896,-1.231635 0.473411,-1.104625 0.851183,-2.201656 1.231636,-3.343008 0.231986,-0.695963 0.758184,-1.382054 0.879739,-2.111375 0.368173,-2.20903 1.231723,-4.399042 1.759479,-6.510065 0.07112,-0.284493 -0.05751,-0.592188 0,-0.879739 0.06194,-0.309703 0.289955,-0.570037 0.351896,-0.87974 0.215191,-1.075962 -0.005,-2.257139 0.175948,-3.34301 0.06492,-0.389541 0.286973,-0.842092 0.351896,-1.231636 0.240694,-1.444167 0.110554,-3.190422 0.703792,-4.574643 0.0833,-0.194365 0.293801,-0.324517 0.351895,-0.527844 0.06445,-0.22557 -0.0291,-0.471006 0,-0.703791 0.145765,-1.166117 0.157126,-0.257794 0.351896,-1.231636 0.05751,-0.287551 -0.04821,-0.590484 0,-0.879739 0.09012,-0.540703 0.408837,-1.048007 0.527841,-1.583531 0.201901,-0.908543 0.360276,-2.799926 0.877496,-3.51232 0.05634,-0.0776 0.220142,0.06807 0.287698,0 0.03822,-0.0385 -0.04778,-0.137064 0,-0.162745 0.260286,-0.139886 1.829226,3.688222 2.031121,4.142491 0.499811,1.124574 0.532096,2.317083 0.703792,3.518958 0.0737,0.515903 -0.08564,1.069687 0,1.583531 0.08834,0.530008 0.276011,1.052325 0.351896,1.583529 0.07465,0.522539 -0.05829,1.058918 0,1.583531 0.144224,1.298011 0.558779,2.565731 0.703791,3.870854 0.136203,1.225817 0.05329,2.468306 0.175948,3.694906 0.102447,1.024464 0.03108,2.152957 0.175948,3.16706 0.03065,0.21453 0.52459,1.399448 0.527844,1.407583 0.422894,1.057236 0.835925,2.111836 1.231635,3.167068 0.349563,0.932162 1.007251,1.738469 1.407584,2.639216 0.04764,0.107191 -0.04009,0.24166 0,0.351896 0.248099,0.682278 0.72813,2.050868 1.055687,2.815167 0.612492,1.429149 1.292635,2.82752 1.938787,4.231169 0.660144,1.434039 1.137582,2.999602 1.903886,4.383651 0.142045,0.256548 0.387795,0.446148 0.527844,0.703791 0.4499,0.827662 0.685507,2.180294 1.100728,2.907157 0.123423,0.216059 0.383214,0.325364 0.527841,0.527841 0.44151,0.618115 0.318884,0.91108 0.707133,1.591898 0.299225,0.524711 0.755338,1.02785 1.055688,1.583531 0.275611,0.509916 0.81983,1.794502 1.256376,2.336797 0.747932,0.929109 1.563421,1.620605 2.495992,2.320034 0.47475,0.356063 0.28834,-0.0029 0.87974,0.351896 0.87974,0.527843 0,0.175947 0.52784,0.527843 0.15374,0.102492 0.37191,0.07346 0.52565,0.175948 0.31075,0.207169 0.55847,0.501722 0.87534,0.699397 1.64619,1.026938 4.41252,1.791108 6.33413,2.111375 0.62414,0.104024 1.50687,0 2.11137,0 1.05494,0 2.49121,0.256937 3.51896,0 1.40752,-0.35188 4.13816,-0.538416 5.63034,-0.351896 0.70902,0.08863 1.41023,0.387615 2.11138,0.527844 1.78796,0.357595 0.6727,0.01934 3.23396,0.361455 0.90247,0.120542 1.75294,0.495255 2.63922,0.703792 2.95271,0.694753 5.94268,0.527841 8.97334,0.527841 0.58999,0 2.15153,-0.02677 2.63922,-0.351896 0.0661,-0.04407 0.86079,-0.238678 0.84601,-0.175945 -0.0477,0.202803 -0.18427,0.37374 -0.2764,0.56061"
       id="path1279" />
    <path
       style="fill:none;stroke:#000000;stroke-width:0.264583px;stroke-linecap:butt;stroke-linejoin:miter;stroke-opacity:1"
       d="m 81.619888,18.676516 c 0.402151,0.334883 0.783294,6.872276 0.783294,3.538271"
       id="path1281" />
    <path
       style="fill:none;stroke:#000000;stroke-width:0.264583px;stroke-linecap:butt;stroke-linejoin:miter;stroke-opacity:1"
       d="m 81.619888,18.676516 c -1.482934,2.138892 3.428997,-2.29982 3.428997,-1.054356"
       id="path1283" />
    <path
       style="fill:none;stroke:#000000;stroke-width:0.264583px;stroke-linecap:butt;stroke-linejoin:miter;stroke-opacity:1"
       d="m 81.619888,18.676516 c 4.547582,1.101676 4.682778,2.332907 3.428995,-1.054356"
       id="path1285" />
    <path
       style="fill:none;stroke:#000000;stroke-width:0.264583px;stroke-linecap:butt;stroke-linejoin:miter;stroke-opacity:1"
       d="m 82.403182,22.214787 c 3.85378,-0.04253 3.0583,-1.111474 3.94217,0.66191"
       id="path1287" />
    <path
       style="fill:none;stroke:#000000;stroke-width:0.264583px;stroke-linecap:butt;stroke-linejoin:miter;stroke-opacity:1"
       d="m 85.048883,17.62216 5.493766,4.006788"
       id="path1289" />
    <path
       style="fill:none;stroke:#000000;stroke-width:0.264583px;stroke-linecap:butt;stroke-linejoin:miter;stroke-opacity:1"
       d="m 90.715387,17.429782 c 0.294873,0.761832 0.600112,1.519734 0.884624,2.285496 0.919192,2.473992 0.879739,1.604805 0.879739,2.815166 0,0.268151 0.250381,-0.708461 0,-0.804453 -0.603665,-0.231438 -1.291402,-0.0647 -1.937101,-0.09704"
       id="path1291" />
    <path
       style="fill:none;stroke:#000000;stroke-width:0.264583px;stroke-linecap:butt;stroke-linejoin:miter;stroke-opacity:1"
       d="m 90.542649,21.628948 c 1.001257,-0.377464 1.962769,-0.884793 3.003774,-1.132391 0.569863,-0.135539 1.177039,0.08022 1.757278,0 0.225745,-0.03121 -0.158395,-0.46067 -0.34645,-0.589394 -0.05486,-0.03755 -0.37896,0 -0.447292,0 -0.293245,0 -0.589439,-0.04147 -0.879739,0 -0.05675,0.0081 -0.492747,0.212826 -0.527844,0.351896 -0.255566,1.012686 0.471876,1.710909 1.231635,2.280728 0.822566,0.616923 3.85713,1.46248 4.22275,0 0.130591,-0.522367 -0.357708,-0.806294 -0.527843,-1.231635 -0.04356,-0.108909 0.06507,-0.254297 0,-0.351896 -0.403699,-0.605547 -0.351896,0.133482 -0.351896,-0.349699 0,-0.14509 -0.04726,0.298093 0,0.435268 0.170886,0.49596 0.449035,0.949021 0.703791,1.407583 0.205391,0.369704 0.325996,0.865589 0.703792,1.055687 0.06555,0.03298 0.246446,0.125413 0.173725,0.135204 -0.01196,0.0016 -1.554747,-3.392019 -1.174858,-4.151785 0.366998,-0.733988 2.274618,-0.347482 2.982288,-0.347482"
       id="path1293" />
    <path
       style="fill:none;stroke:#000000;stroke-width:0.264583px;stroke-linecap:butt;stroke-linejoin:miter;stroke-opacity:1"
       d="m 94.884644,51.861203 c 1.947852,-1.909148 -0.09492,-0.05606 4.18194,-2.676445 0.506553,-0.310359 0.943896,-0.721794 1.423826,-1.07192 0.22232,-0.162195 0.70379,-0.285565 0.70379,-0.516472"
       id="path1295" />
    <path
       style="fill:none;stroke:#000000;stroke-width:0.264583px;stroke-linecap:butt;stroke-linejoin:miter;stroke-opacity:1"
       d="m 103.02945,41.476556 c 0.66381,1.684132 1.97742,2.992237 2.81516,4.574646 0.27027,0.5105 0.48163,1.050335 0.7038,1.583531 0.0713,0.171199 0.31347,0.652275 0.17594,0.527844 -0.51704,-0.467815 -0.58977,-1.263946 -0.86444,-1.904838"
       id="path1297" />
    <path
       style="fill:none;stroke:#000000;stroke-width:0.264583px;stroke-linecap:butt;stroke-linejoin:miter;stroke-opacity:1"
       d="m 103.02945,41.476556 c 0.43302,-0.878818 0.5097,-2.056172 1.29906,-2.636456 0.61431,-0.451596 1.52908,-0.07982 2.28733,0 2.75822,0.290338 2.01825,3.013212 0,3.514553 -0.15708,0.03902 -0.49598,0.4142 -0.65698,0.349663 -0.98276,-0.393923 -1.95294,-0.818507 -2.92941,-1.22776"
       id="path1299" />
    <path
       style="fill:none;stroke:#000000;stroke-width:0.264583px;stroke-linecap:butt;stroke-linejoin:miter;stroke-opacity:1"
       d="m 105.85991,46.257739 c -0.10413,-1.57102 4.33989,-2.268789 4.75209,-4.284766 0.077,-0.376531 -0.79157,-0.704845 -0.87322,-0.697272 -0.44475,0.04125 -0.83951,0.313959 -1.23163,0.527843 -0.92416,0.504087 -0.75729,0.604531 -0.52785,1.407584 0.0664,0.232513 0.056,0.493834 0.17595,0.703791 0.80809,1.414164 4.75927,1.966156 5.86105,1.231633 0.73796,-0.491971 0.47958,-1.472962 0.35189,-2.111372 -0.0459,-0.229323 0.0737,-0.479637 0,-0.701591 -0.16774,-0.505351 -0.52564,-0.845674 -0.52564,-1.394015 0,-0.446659 0.20826,0.869193 0.33661,1.297014 0.0665,0.2217 1.53816,3.943204 0.87974,1.992619 -0.39825,-1.179803 -1.54153,-4.077938 0.70379,-4.398698 0.40642,-0.05806 0.82109,0 1.23163,0 2.31784,0 0.7175,0.177221 0.0734,0.821315 -0.0829,0.08294 0.0166,0.235775 0,0.351896 -0.0423,0.296047 -0.17595,0.580683 -0.17595,0.879739 0,0.309205 0.65403,2.217158 1.21746,1.935425 0.33382,-0.166921 0.30135,-0.896073 0.33772,-1.041517 0.10896,-0.435856 0.40831,-1.470694 0.17594,-1.935427 -0.28285,-0.565711 -1.93542,-0.961932 -1.93542,-1.229421 0,-0.03853 0,0.07706 0,0.115583 0,0.227444 0,0.454885 0,0.682329"
       id="path1301" />
    <path
       style="fill:none;stroke:#000000;stroke-width:0.264583px;stroke-linecap:butt;stroke-linejoin:miter;stroke-opacity:1"
       d="m 106.88431,54.083531 c 0.1173,0.821092 0.23983,1.641452 0.3519,2.463271 0.0639,0.468511 -0.0342,0.983983 0.17595,1.407584 0.41485,0.836403 3.24196,0.746516 3.85782,-0.17916 0.10463,-0.157266 0,-0.690378 0,-0.870879"
       id="path1303" />
    <path
       style="fill:none;stroke:#000000;stroke-width:0.264583px;stroke-linecap:butt;stroke-linejoin:miter;stroke-opacity:1"
       d="m 106.88431,54.083531 c 2.68334,-2.929604 1.55411,-2.772584 3.79495,-2.772584"
       id="path1305" />
    <path
       style="fill:none;stroke:#000000;stroke-width:0.264583px;stroke-linecap:butt;stroke-linejoin:miter;stroke-opacity:1"
       d="m 106.88431,54.083531 c 1.66598,0.225838 3.33101,0.458878 4.99796,0.677514 0.96689,0.126817 0.80215,-1.295448 -0.61229,2.143302"
       id="path1307" />
    <path
       style="fill:none;stroke:#000000;stroke-width:0.264583px;stroke-linecap:butt;stroke-linejoin:miter;stroke-opacity:1"
       d="m 114.18982,53.796768 c 0.45099,1.803953 0.8487,2.817339 0.87974,4.574646 0.005,0.281987 -0.18574,-0.550106 -0.15955,-0.830921 0.0989,-1.0603 0.58625,-3.340018 2.09559,-2.833744 0.58043,0.194694 1.89404,2.836069 1.40758,3.164848 -0.3753,0.253651 -0.76343,-0.760986 -0.64241,-1.197496 0.11081,-0.399634 0.56978,-0.604218 0.87974,-0.879737 0.21918,-0.194823 0.49611,-0.320815 0.70379,-0.527843 0.041,-0.04089 -0.0533,-0.151054 0,-0.173736 0.14565,-0.062 0.37009,1.966208 0.82565,2.201592 0.71723,0.370578 1.43647,-0.701881 1.70301,-1.231635 0.104,-0.20669 -0.17373,-0.903412 -0.17373,-0.672037 0,0.654725 0.24793,1.471941 0.70379,1.969114 0.036,0.03931 -0.0166,-0.109323 0,-0.159999 0.0963,-0.293536 0.25365,-0.566007 0.33594,-0.863782 0.0986,-0.356952 0.44565,-2.285119 -0.13525,-2.285119"
       id="path1309" />
    <path
       style="fill:none;stroke:#000000;stroke-width:0.264583px;stroke-linecap:butt;stroke-linejoin:miter;stroke-opacity:1"
       d="m 126.85371,54.124642 c -0.33187,-0.103735 -0.65495,-0.241614 -0.99562,-0.311205 -0.19651,-0.04015 -2.93852,-0.132181 -2.28511,0.521237 0.72132,0.721312 1.86903,0.958789 2.80858,1.227233 0.17833,0.05095 0.34237,0.175948 0.52784,0.175948 0.0794,0 0.13511,-0.251151 0.16063,-0.175948 0.36858,1.08613 -1.66963,1.616538 -2.46327,1.353103 -0.88663,-0.294299 -0.14772,-0.0048 -0.34749,-0.33146 -0.52531,-0.858843 -1.09704,-1.68842 -1.64556,-2.532631"
       id="path1311" />
    <path
       style="fill:none;stroke:#000000;stroke-width:0.264583px;stroke-linecap:butt;stroke-linejoin:miter;stroke-opacity:1"
       d="m 130.70259,54.288573 c -0.6645,-0.292219 -1.88054,-0.971413 -2.48071,-0.163566 -0.67228,0.90491 1.66511,1.483461 1.74244,1.713516 0.24392,0.725625 -0.082,1.731738 -0.87533,1.92881 -0.33018,0.08202 -2.28727,-0.369133 -2.28724,-0.703749 4e-5,-0.388991 0.28944,-0.641303 0.52785,-0.879705 -0.15863,-0.686414 -0.31726,-1.372825 -0.47589,-2.059237"
       id="path1313" />
    <path
       style="fill:none;stroke:#000000;stroke-width:0.264583px;stroke-linecap:butt;stroke-linejoin:miter;stroke-opacity:1"
       d="m 130.70259,54.288573 c 3.60922,-0.73578 0.63684,2.581756 1.73864,3.126436 2.63107,1.300673 1.73663,-1.115142 1.73663,-2.301465 0,-0.03925 0,0.07849 0,0.117742 0,0.345522 -0.0386,0.693211 0,1.036571 0.0762,0.677619 0.48552,1.583532 1.23163,1.583532 0.11657,0 0.26754,0.08268 0.34971,0 0.63513,-0.63916 -0.15957,-1.646071 -0.53006,-2.109174 -0.3483,-0.435385 -0.68476,0.01812 0.27402,-0.06996 0.52296,-0.04805 1.07267,-0.357037 1.56562,-0.175948 0.29364,0.107871 0.0917,2.15914 0.0917,2.358758 0,0.175948 0.15544,0.445407 0,0.527844 -0.0977,0.05181 -0.30256,0.106661 -0.33177,0 -0.18845,-0.688152 0.27894,-3.547695 1.51708,-2.619095 1.96085,1.470639 0.61977,3.549518 0.61977,1.717813"
       id="path1315" />
  </g>
</svg>
